<svg width="173" height="116" viewBox="0 0 173 116" fill="none" xmlns="http://www.w3.org/2000/svg">
<path opacity="0.2" d="M142.281 0.991695C141.192 0.803661 140.157 1.53359 139.969 2.62204C139.781 3.71049 140.511 4.74528 141.6 4.93331L142.281 0.991695ZM26.9874 43.2809L28.3332 44.7604L26.9874 43.2809ZM49.4378 28.2243C49.68 27.1467 49.0027 26.0767 47.925 25.8345L30.3631 21.8874C29.2855 21.6452 28.2155 22.3225 27.9733 23.4001C27.731 24.4778 28.4083 25.5478 29.486 25.79L45.0966 29.2985L41.5881 44.9091C41.3459 45.9868 42.0232 47.0568 43.1009 47.299C44.1785 47.5412 45.2485 46.8639 45.4907 45.7862L49.4378 28.2243ZM166.664 20.5446C171.449 30.8075 167.643 44.4883 156.414 58.6381C145.268 72.6831 127.182 86.6527 104.763 97.1065L106.454 100.732C129.313 90.0724 147.939 75.7515 159.547 61.1246C171.071 46.6024 176.06 31.2299 170.289 18.8541L166.664 20.5446ZM104.763 97.1065C82.3451 107.56 60.0183 112.435 42.0947 111.946C24.0375 111.452 11.1105 105.575 6.32484 95.3118L2.69961 97.0022C8.47054 109.378 23.453 115.438 41.9855 115.944C60.6517 116.454 83.5948 111.391 106.454 100.732L104.763 97.1065ZM141.6 4.93331C154.095 7.0919 162.893 12.4576 166.664 20.5446L170.289 18.8541C165.738 9.09379 155.428 3.26294 142.281 0.991695L141.6 4.93331ZM6.32484 95.3118C3.21754 88.6481 3.7151 80.5759 7.56101 71.7868C11.4077 62.9958 18.537 53.6713 28.3332 44.7604L25.6417 41.8014C15.5685 50.9642 8.03344 60.729 3.89648 70.1832C-0.241274 79.6393 -1.04666 88.9683 2.69961 97.0022L6.32484 95.3118ZM28.3332 44.7604C34.1928 39.4303 40.9851 34.268 48.5562 29.4757L46.4168 26.0959C38.6652 31.0025 31.6857 36.3036 25.6417 41.8014L28.3332 44.7604Z" fill="url(#paint0_linear_401_4588)"/>
<defs>
<linearGradient id="paint0_linear_401_4588" x1="19.9214" y1="36.5055" x2="290" y2="7.4999" gradientUnits="userSpaceOnUse">
<stop stop-color="#FFDF3F"/>
<stop offset="1" stop-color="#1C1B24"/>
</linearGradient>
</defs>
</svg>
