<svg width="42" height="42" viewBox="0 0 42 42" fill="none" xmlns="http://www.w3.org/2000/svg">
<path d="M8.52779 5.25H33.4723C33.7484 5.24996 34.0206 5.31527 34.2667 5.44058C34.5128 5.56589 34.7257 5.74765 34.888 5.971L41.5783 15.169C41.6972 15.3327 41.7558 15.5325 41.744 15.7345C41.7322 15.9364 41.6507 16.1281 41.5135 16.2767L21.6423 37.8035C21.5604 37.892 21.461 37.9627 21.3505 38.011C21.24 38.0593 21.1207 38.0842 21 38.0842C20.8794 38.0842 20.7601 38.0593 20.6496 38.011C20.539 37.9627 20.4397 37.892 20.3578 37.8035L0.486539 16.2785C0.348903 16.1297 0.267203 15.9377 0.255393 15.7353C0.243584 15.533 0.302397 15.3328 0.421789 15.169L7.11204 5.971C7.2744 5.74765 7.48732 5.56589 7.73338 5.44058C7.97944 5.31527 8.25166 5.24996 8.52779 5.25Z" fill="url(#paint0_linear_401_4581)"/>
<defs>
<linearGradient id="paint0_linear_401_4581" x1="20.9997" y1="5.25" x2="20.9997" y2="38.0842" gradientUnits="userSpaceOnUse">
<stop stop-color="#D55C8C"/>
<stop offset="0.495833" stop-color="#92EEA3"/>
<stop offset="1" stop-color="#00FFFF"/>
</linearGradient>
</defs>
</svg>
