<svg width="42" height="42" viewBox="0 0 42 42" fill="none" xmlns="http://www.w3.org/2000/svg">
<path d="M2.06665 21C3.71165 12.04 11.5639 5.25 20.9999 5.25C30.4359 5.25 38.2864 12.04 39.9332 21C38.2882 29.96 30.4359 36.75 20.9999 36.75C11.5639 36.75 3.7134 29.96 2.06665 21V21ZM20.9999 29.75C23.3205 29.75 25.5461 28.8281 27.1871 27.1872C28.828 25.5462 29.7499 23.3206 29.7499 21C29.7499 18.6794 28.828 16.4538 27.1871 14.8128C25.5461 13.1719 23.3205 12.25 20.9999 12.25C18.6793 12.25 16.4537 13.1719 14.8127 14.8128C13.1718 16.4538 12.2499 18.6794 12.2499 21C12.2499 23.3206 13.1718 25.5462 14.8127 27.1872C16.4537 28.8281 18.6793 29.75 20.9999 29.75ZM20.9999 26.25C19.6075 26.25 18.2722 25.6969 17.2876 24.7123C16.303 23.7277 15.7499 22.3924 15.7499 21C15.7499 19.6076 16.303 18.2723 17.2876 17.2877C18.2722 16.3031 19.6075 15.75 20.9999 15.75C22.3923 15.75 23.7276 16.3031 24.7122 17.2877C25.6968 18.2723 26.2499 19.6076 26.2499 21C26.2499 22.3924 25.6968 23.7277 24.7122 24.7123C23.7276 25.6969 22.3923 26.25 20.9999 26.25Z" fill="url(#paint0_linear_401_4569)"/>
<defs>
<linearGradient id="paint0_linear_401_4569" x1="20.9999" y1="5.25" x2="20.9999" y2="36.75" gradientUnits="userSpaceOnUse">
<stop stop-color="#D55C8C"/>
<stop offset="0.495833" stop-color="#92EEA3"/>
<stop offset="1" stop-color="#00FFFF"/>
</linearGradient>
</defs>
</svg>
