<svg width="107" height="102" viewBox="0 0 107 102" fill="none" xmlns="http://www.w3.org/2000/svg">
<path d="M20.6413 14.0076L51.5946 5.72719C62.8744 2.70967 71.0454 7.63229 74.1871 19.3381L82.8 51.4298C85.9417 63.1357 81.3307 71.4776 70.0509 74.4951L39.0975 82.7756C27.8177 85.7931 19.6762 80.8626 16.5345 69.1568L7.9216 37.0651C4.77993 25.3592 9.3614 17.0252 20.6413 14.0076Z" fill="url(#paint0_linear_401_4832)"/>
<g filter="url(#filter0_f_401_4832)">
<path d="M29.3456 25.8578L50.3682 20.234C58.0291 18.1846 63.4831 21.1721 65.4482 28.4943L70.8358 48.5684C72.801 55.8907 69.5739 61.2005 61.913 63.2499L40.8904 68.8737C33.2295 70.9231 27.7955 67.9303 25.8303 60.608L20.4428 40.5339C18.4776 33.2117 21.6847 27.9072 29.3456 25.8578Z" fill="#0062FF" fill-opacity="0.5"/>
</g>
<g filter="url(#filter1_b_401_4832)">
<mask id="path-3-outside-1_401_4832" maskUnits="userSpaceOnUse" x="25.0374" y="20.1562" width="75" height="75" fill="black">
<rect fill="white" x="25.0374" y="20.1562" width="75" height="75"/>
<path d="M78.3515 21.1562H46.7222C34.3551 21.1562 26.0374 29.8247 26.0374 42.7181V72.4749C26.0374 85.3319 34.3551 94.0004 46.7222 94.0004H78.3515C90.7187 94.0004 98.9999 85.3319 98.9999 72.4749V42.7181C98.9999 29.8247 90.7187 21.1562 78.3515 21.1562Z"/>
</mask>
<path d="M78.3515 21.1562H46.7222C34.3551 21.1562 26.0374 29.8247 26.0374 42.7181V72.4749C26.0374 85.3319 34.3551 94.0004 46.7222 94.0004H78.3515C90.7187 94.0004 98.9999 85.3319 98.9999 72.4749V42.7181C98.9999 29.8247 90.7187 21.1562 78.3515 21.1562Z" fill="#3EA0FE" fill-opacity="0.35"/>
<path d="M78.3515 22.1562C78.9038 22.1562 79.3515 21.7085 79.3515 21.1562C79.3515 20.604 78.9038 20.1562 78.3515 20.1562V22.1562ZM78.3515 20.1562C77.7992 20.1562 77.3515 20.604 77.3515 21.1562C77.3515 21.7085 77.7992 22.1562 78.3515 22.1562V20.1562ZM78.3515 20.1562H46.7222V22.1562H78.3515V20.1562ZM46.7222 20.1562C40.2964 20.1562 34.8543 22.4138 31.0205 26.4099C27.1901 30.4023 25.0374 36.0542 25.0374 42.7181H27.0374C27.0374 36.4886 29.0434 31.3595 32.4637 27.7945C35.8806 24.233 40.7809 22.1562 46.7222 22.1562V20.1562ZM25.0374 42.7181V72.4749H27.0374V42.7181H25.0374ZM25.0374 72.4749C25.0374 79.1214 27.1906 84.7641 31.0209 88.7518C34.8546 92.7429 40.2964 95.0004 46.7222 95.0004V93.0004C40.7809 93.0004 35.8803 90.9236 32.4633 87.3663C29.043 83.8055 27.0374 78.6855 27.0374 72.4749H25.0374ZM46.7222 95.0004H78.3515V93.0004H46.7222V95.0004ZM78.3515 95.0004C84.7775 95.0004 90.2107 92.7428 94.0355 88.7509C97.8566 84.7628 99.9999 79.1202 99.9999 72.4749H97.9999C97.9999 78.6867 96.0027 83.8068 92.5914 87.3672C89.1837 90.9238 84.2927 93.0004 78.3515 93.0004V95.0004ZM99.9999 72.4749V42.7181H97.9999V72.4749H99.9999ZM99.9999 42.7181C99.9999 36.0554 97.857 30.4037 94.0359 26.4108C90.211 22.4139 84.7776 20.1562 78.3515 20.1562V22.1562C84.2927 22.1562 89.1834 24.2328 92.591 27.7935C96.0022 31.3582 97.9999 36.4874 97.9999 42.7181H99.9999Z" fill="url(#paint1_linear_401_4832)" mask="url(#path-3-outside-1_401_4832)"/>
</g>
<g filter="url(#filter2_bd_401_4832)">
<mask id="path-5-inside-2_401_4832" fill="white">
<path fill-rule="evenodd" clip-rule="evenodd" d="M40.6906 44.9259C40.6906 49.9663 44.794 54.0686 49.844 54.0686C54.8903 54.0686 58.9974 49.9663 58.9974 44.9259C58.9974 39.8855 54.8903 35.7832 49.844 35.7832C44.794 35.7832 40.6906 39.8855 40.6906 44.9259ZM90.5938 78.4791C91.9051 75.3693 92.5424 71.5952 91.3158 68.4552C90.9069 67.4136 90.2955 66.4436 89.4372 65.5907C87.1867 63.3602 85.0834 61.2769 82.5823 59.7371C78.6558 57.2915 75.6243 60.7259 74.8066 61.8242C74.1543 62.7018 73.5776 63.6544 72.9931 64.6199C72.8713 64.8211 72.7492 65.0229 72.626 65.2246L72.5969 65.2727C70.8578 68.1487 68.8607 71.4513 65.4175 73.3766C60.3859 76.1581 56.5662 73.5955 53.8183 71.7311C52.7869 71.0367 51.785 70.38 50.7868 69.9422C48.3263 68.8817 46.1125 70.0894 42.8269 74.256C41.103 76.4336 39.3939 78.5924 37.6627 80.7436C36.6276 82.0305 36.8744 84.0157 38.2705 84.8762C40.499 86.2462 43.2173 86.9821 46.2893 86.9821H77.1603C78.9026 86.9821 80.6485 86.7444 82.3134 86.2009C86.0632 84.9781 89.0394 82.1777 90.5938 78.4791Z"/>
</mask>
<path fill-rule="evenodd" clip-rule="evenodd" d="M40.6906 44.9259C40.6906 49.9663 44.794 54.0686 49.844 54.0686C54.8903 54.0686 58.9974 49.9663 58.9974 44.9259C58.9974 39.8855 54.8903 35.7832 49.844 35.7832C44.794 35.7832 40.6906 39.8855 40.6906 44.9259ZM90.5938 78.4791C91.9051 75.3693 92.5424 71.5952 91.3158 68.4552C90.9069 67.4136 90.2955 66.4436 89.4372 65.5907C87.1867 63.3602 85.0834 61.2769 82.5823 59.7371C78.6558 57.2915 75.6243 60.7259 74.8066 61.8242C74.1543 62.7018 73.5776 63.6544 72.9931 64.6199C72.8713 64.8211 72.7492 65.0229 72.626 65.2246L72.5969 65.2727C70.8578 68.1487 68.8607 71.4513 65.4175 73.3766C60.3859 76.1581 56.5662 73.5955 53.8183 71.7311C52.7869 71.0367 51.785 70.38 50.7868 69.9422C48.3263 68.8817 46.1125 70.0894 42.8269 74.256C41.103 76.4336 39.3939 78.5924 37.6627 80.7436C36.6276 82.0305 36.8744 84.0157 38.2705 84.8762C40.499 86.2462 43.2173 86.9821 46.2893 86.9821H77.1603C78.9026 86.9821 80.6485 86.7444 82.3134 86.2009C86.0632 84.9781 89.0394 82.1777 90.5938 78.4791Z" fill="url(#paint2_linear_401_4832)"/>
<path d="M91.3158 68.4552L91.5021 68.3824L91.502 68.3821L91.3158 68.4552ZM90.5938 78.4791L90.4096 78.4014L90.4095 78.4017L90.5938 78.4791ZM89.4372 65.5907L89.5782 65.4488L89.578 65.4486L89.4372 65.5907ZM82.5823 59.7371L82.4766 59.9069L82.4775 59.9074L82.5823 59.7371ZM74.8066 61.8242L74.6462 61.7047L74.6461 61.7049L74.8066 61.8242ZM72.9931 64.6199L72.822 64.5163L72.9931 64.6199ZM72.626 65.2246L72.4553 65.1204L72.4548 65.1211L72.626 65.2246ZM72.5969 65.2727L72.4257 65.1692L72.4257 65.1692L72.5969 65.2727ZM65.4175 73.3766L65.5142 73.5516L65.5151 73.5512L65.4175 73.3766ZM53.8183 71.7311L53.9306 71.5656L53.93 71.5652L53.8183 71.7311ZM50.7868 69.9422L50.8672 69.759L50.866 69.7585L50.7868 69.9422ZM42.8269 74.256L42.9837 74.3801L42.9839 74.3798L42.8269 74.256ZM37.6627 80.7436L37.5069 80.6182L37.5068 80.6182L37.6627 80.7436ZM38.2705 84.8762L38.1655 85.0464L38.1657 85.0466L38.2705 84.8762ZM82.3134 86.2009L82.2514 86.0107L82.2514 86.0108L82.3134 86.2009ZM49.844 53.8686C44.9043 53.8686 40.8906 49.8557 40.8906 44.9259H40.4906C40.4906 50.0769 44.6837 54.2686 49.844 54.2686V53.8686ZM58.7974 44.9259C58.7974 49.8556 54.7801 53.8686 49.844 53.8686V54.2686C55.0006 54.2686 59.1974 50.077 59.1974 44.9259H58.7974ZM49.844 35.9832C54.7801 35.9832 58.7974 39.9961 58.7974 44.9259H59.1974C59.1974 39.7748 55.0006 35.5832 49.844 35.5832V35.9832ZM40.8906 44.9259C40.8906 39.9961 44.9043 35.9832 49.844 35.9832V35.5832C44.6837 35.5832 40.4906 39.7748 40.4906 44.9259H40.8906ZM91.1295 68.528C92.3292 71.5992 91.7111 75.3148 90.4096 78.4014L90.7781 78.5569C92.0992 75.4239 92.7556 71.5913 91.5021 68.3825L91.1295 68.528ZM89.2963 65.7326C90.1338 66.5649 90.7304 67.5111 91.1296 68.5283L91.502 68.3821C91.0835 67.3161 90.4571 66.3223 89.5782 65.4488L89.2963 65.7326ZM82.4775 59.9074C84.9556 61.4331 87.0427 63.4991 89.2965 65.7328L89.578 65.4486C87.3306 63.2213 85.2113 61.1208 82.6872 59.5668L82.4775 59.9074ZM74.967 61.9436C75.3684 61.4045 76.3086 60.2996 77.6196 59.6298C78.9184 58.9663 80.5821 58.7269 82.4766 59.9069L82.6881 59.5674C80.656 58.3017 78.8407 58.5568 77.4377 59.2736C76.0469 59.9842 75.0625 61.1456 74.6462 61.7047L74.967 61.9436ZM73.1642 64.7235C73.7496 63.7565 74.3214 62.8122 74.9671 61.9435L74.6461 61.7049C73.9871 62.5914 73.4056 63.5523 72.822 64.5163L73.1642 64.7235ZM72.7967 65.3289C72.9201 65.1267 73.0425 64.9246 73.1642 64.7235L72.822 64.5163C72.7002 64.7176 72.5783 64.919 72.4553 65.1204L72.7967 65.3289ZM72.768 65.3762L72.7971 65.3281L72.4548 65.1211L72.4257 65.1692L72.768 65.3762ZM65.5151 73.5512C69.0115 71.5961 71.033 68.2455 72.768 65.3762L72.4257 65.1692C70.6826 68.0519 68.7099 71.3064 65.3199 73.202L65.5151 73.5512ZM53.706 71.8966C55.0769 72.8267 56.7447 73.953 58.7088 74.489C60.6837 75.028 62.9504 74.9689 65.5142 73.5516L65.3207 73.2016C62.853 74.5658 60.694 74.6162 58.8141 74.1031C56.9235 73.5871 55.3076 72.4999 53.9306 71.5656L53.706 71.8966ZM50.7065 70.1254C51.6858 70.5549 52.6736 71.2015 53.7066 71.897L53.93 71.5652C52.9003 70.8719 51.8842 70.2051 50.8672 69.759L50.7065 70.1254ZM42.9839 74.3798C44.6231 72.3012 45.9772 70.9847 47.2117 70.3147C48.4303 69.6533 49.5345 69.6202 50.7077 70.1259L50.866 69.7585C49.5786 69.2036 48.3457 69.2441 47.0209 69.9631C45.7119 70.6735 44.3164 72.0441 42.6698 74.1321L42.9839 74.3798ZM37.8185 80.869C39.5503 78.717 41.2599 76.5576 42.9837 74.3801L42.6701 74.1318C40.9461 76.3096 39.2375 78.4677 37.5069 80.6182L37.8185 80.869ZM38.3754 84.7059C37.0926 83.9152 36.8508 82.0722 37.8185 80.8689L37.5068 80.6182C36.4045 81.9889 36.6563 84.1162 38.1655 85.0464L38.3754 84.7059ZM46.2893 86.7821C43.2495 86.7821 40.5683 86.0541 38.3752 84.7058L38.1657 85.0466C40.4296 86.4383 43.1852 87.1821 46.2893 87.1821V86.7821ZM77.1603 86.7821H46.2893V87.1821H77.1603V86.7821ZM82.2514 86.0108C80.6093 86.5468 78.8846 86.7821 77.1603 86.7821V87.1821C78.9205 87.1821 80.6878 86.9419 82.3755 86.391L82.2514 86.0108ZM90.4095 78.4017C88.8767 82.0488 85.9439 84.8066 82.2514 86.0107L82.3755 86.391C86.1825 85.1495 89.2022 82.3067 90.7782 78.5566L90.4095 78.4017Z" fill="url(#paint3_linear_401_4832)" fill-opacity="0.5" mask="url(#path-5-inside-2_401_4832)"/>
</g>
<defs>
<filter id="filter0_f_401_4832" x="0.877686" y="0.602554" width="89.5212" height="87.902" filterUnits="userSpaceOnUse" color-interpolation-filters="sRGB">
<feFlood flood-opacity="0" result="BackgroundImageFix"/>
<feBlend mode="normal" in="SourceGraphic" in2="BackgroundImageFix" result="shape"/>
<feGaussianBlur stdDeviation="9.5" result="effect1_foregroundBlur_401_4832"/>
</filter>
<filter id="filter1_b_401_4832" x="1.03735" y="-3.84375" width="122.963" height="122.844" filterUnits="userSpaceOnUse" color-interpolation-filters="sRGB">
<feFlood flood-opacity="0" result="BackgroundImageFix"/>
<feGaussianBlur in="BackgroundImage" stdDeviation="12"/>
<feComposite in2="SourceAlpha" operator="in" result="effect1_backgroundBlur_401_4832"/>
<feBlend mode="normal" in="SourceGraphic" in2="effect1_backgroundBlur_401_4832" result="shape"/>
</filter>
<filter id="filter2_bd_401_4832" x="22.0269" y="20.7832" width="84.9453" height="81.1989" filterUnits="userSpaceOnUse" color-interpolation-filters="sRGB">
<feFlood flood-opacity="0" result="BackgroundImageFix"/>
<feGaussianBlur in="BackgroundImage" stdDeviation="7.5"/>
<feComposite in2="SourceAlpha" operator="in" result="effect1_backgroundBlur_401_4832"/>
<feColorMatrix in="SourceAlpha" type="matrix" values="0 0 0 0 0 0 0 0 0 0 0 0 0 0 0 0 0 0 127 0" result="hardAlpha"/>
<feOffset dx="5" dy="5"/>
<feGaussianBlur stdDeviation="5"/>
<feColorMatrix type="matrix" values="0 0 0 0 0.15375 0 0 0 0 0.522433 0 0 0 0 0.9 0 0 0 0.5 0"/>
<feBlend mode="normal" in2="effect1_backgroundBlur_401_4832" result="effect2_dropShadow_401_4832"/>
<feBlend mode="normal" in="SourceGraphic" in2="effect2_dropShadow_401_4832" result="shape"/>
</filter>
<linearGradient id="paint0_linear_401_4832" x1="7.73962" y1="17.459" x2="91.5887" y2="45.7082" gradientUnits="userSpaceOnUse">
<stop stop-color="#39AFFD"/>
<stop offset="1" stop-color="#3AB6FF"/>
</linearGradient>
<linearGradient id="paint1_linear_401_4832" x1="37.6518" y1="29.6427" x2="84.1027" y2="87.2667" gradientUnits="userSpaceOnUse">
<stop stop-color="white" stop-opacity="0.25"/>
<stop offset="1" stop-color="white" stop-opacity="0.06"/>
</linearGradient>
<linearGradient id="paint2_linear_401_4832" x1="88.0766" y1="45.0287" x2="26.8826" y2="47.1699" gradientUnits="userSpaceOnUse">
<stop stop-color="white"/>
<stop offset="1" stop-color="white" stop-opacity="0.2"/>
</linearGradient>
<linearGradient id="paint3_linear_401_4832" x1="42.9457" y1="52.958" x2="89.6016" y2="53.2344" gradientUnits="userSpaceOnUse">
<stop stop-color="white"/>
<stop offset="1" stop-color="white" stop-opacity="0"/>
</linearGradient>
</defs>
</svg>
