<svg width="140" height="142" viewBox="0 0 140 142" fill="none" xmlns="http://www.w3.org/2000/svg">
<g clip-path="url(#clip0_79_1298)">
<path d="M32.5477 53.25C34.2971 53.25 35.6754 53.9368 36.6826 55.3103C50.7835 74.5394 60.3785 94.9836 65.4676 116.643H30.0032C23.2708 93.346 13.5433 73.5621 0.820616 57.2913C0.184484 56.4461 0.104968 55.5612 0.582067 54.6367C1.05917 53.7122 1.82783 53.25 2.88805 53.25H32.5477ZM76.9975 81.5391C74.3999 92.0517 71.0867 102.432 67.0579 112.681C62.87 96.3043 56.0846 80.6146 46.7017 65.6116C48.8221 53.9368 49.9883 42.077 50.2004 30.0324C61.3857 47.9937 70.3181 65.1626 76.9975 81.5391ZM84.8696 25.3571C97.3272 42.4732 107.519 60.9232 115.444 80.707C123.369 100.491 128.259 120.922 130.115 142H94.2525C92.0791 106.87 77.4215 67.9888 50.2799 25.3571H84.8696ZM139.975 71C139.975 93.3988 137.298 114.847 131.943 135.344C128.392 105.76 118.876 77.1544 103.397 49.5257C102.072 33.6246 99.2621 18.199 94.9682 3.24888C94.7562 2.40365 94.9019 1.65086 95.4055 0.990513C95.9091 0.330171 96.585 0 97.4332 0H125.98C127.093 0 128.113 0.343378 129.041 1.03013C129.969 1.71689 130.565 2.58854 130.83 3.64509C136.926 25.2515 139.975 47.7031 139.975 71Z" fill="white"/>
</g>
<defs>
<clipPath id="clip0_79_1298">
<rect width="140" height="142" fill="white"/>
</clipPath>
</defs>
</svg>
