<svg width="42" height="42" viewBox="0 0 42 42" fill="none" xmlns="http://www.w3.org/2000/svg">
<path d="M21 3.5C30.66 3.5 38.5 11.34 38.5 21C38.5 30.66 30.66 38.5 21 38.5C11.34 38.5 3.5 30.66 3.5 21C3.5 11.34 11.34 3.5 21 3.5ZM21 35C28.7472 35 35 28.7472 35 21C35 13.2528 28.7472 7 21 7C19.1608 6.9977 17.3393 7.35825 15.6397 8.061C13.9401 8.76375 12.3958 9.79489 11.0954 11.0954C9.79489 12.3958 8.76375 13.9401 8.061 15.6397C7.35825 17.3393 6.9977 19.1608 7 21C7 28.7472 13.2528 35 21 35ZM21 31.5C15.19 31.5 10.5 26.81 10.5 21C10.5 15.19 15.19 10.5 21 10.5C26.81 10.5 31.5 15.19 31.5 21C31.5 26.81 26.81 31.5 21 31.5ZM21 17.5C19.075 17.5 17.5 19.075 17.5 21C17.5 22.925 19.075 24.5 21 24.5C22.925 24.5 24.5 22.925 24.5 21C24.5 19.075 22.925 17.5 21 17.5Z" fill="url(#paint0_linear_401_4575)"/>
<defs>
<linearGradient id="paint0_linear_401_4575" x1="21" y1="3.5" x2="21" y2="38.5" gradientUnits="userSpaceOnUse">
<stop stop-color="#D55C8C"/>
<stop offset="0.495833" stop-color="#92EEA3"/>
<stop offset="1" stop-color="#00FFFF"/>
</linearGradient>
</defs>
</svg>
