<svg width="375" height="604" viewBox="0 0 375 604" fill="none" xmlns="http://www.w3.org/2000/svg">
<g opacity="0.7">
<rect width="20" height="13.6" rx="2.09864" transform="matrix(0.91723 -0.398359 0.39806 0.91736 154.439 304.718)" fill="#FFD700" stroke="#111111" stroke-width="2.09864"/>
<path d="M232.139 277.216L215.592 278.543C214.158 278.659 213.262 280.151 213.835 281.472L216.927 288.599C217.5 289.919 219.202 290.284 220.266 289.314L232.535 278.127C232.904 277.79 232.638 277.176 232.139 277.216Z" fill="#FFD700" stroke="#111111" stroke-width="2.09864"/>
<path d="M101.033 371.815C98.3751 372.969 95.2855 371.75 94.1321 369.092L88.4555 356.009C87.9128 354.759 87.8782 353.346 88.3589 352.07L91.7889 342.965C92.8332 340.194 95.9624 338.835 98.6995 339.964L107.69 343.674C108.95 344.194 109.958 345.184 110.501 346.435L116.177 359.517C117.331 362.175 116.111 365.266 113.454 366.42L101.033 371.815Z" fill="#F5F5F5" fill-opacity="0.25" stroke="#111111" stroke-width="2.09864"/>
<path d="M83.0814 296.424C85.7392 295.269 88.8287 296.489 89.9822 299.147L95.6588 312.229C96.2014 313.48 96.2361 314.892 95.7554 316.168L92.3253 325.273C91.2811 328.045 88.1518 329.404 85.4147 328.274L76.4241 324.564C75.1642 324.044 74.1561 323.054 73.6135 321.803L67.9368 308.721C66.7834 306.063 68.0029 302.972 70.6607 301.818L83.0814 296.424Z" fill="#F5F5F5" fill-opacity="0.25" stroke="#111111" stroke-width="2.09864"/>
<path d="M54.369 343.106C53.2156 340.448 54.4351 337.357 57.0929 336.203L70.1733 330.522C71.4237 329.979 72.8362 329.944 74.1117 330.424L83.2133 333.853C85.9842 334.897 87.3423 338.027 86.2124 340.765L82.5011 349.758C81.981 351.019 80.9909 352.027 79.7405 352.57L66.6601 358.251C64.0024 359.405 60.9128 358.186 59.7593 355.528L54.369 343.106Z" fill="#A173C3" stroke="#111111" stroke-width="2.09864"/>
<path d="M129.746 325.133C130.9 327.791 129.68 330.881 127.022 332.036L113.942 337.717C112.692 338.26 111.279 338.295 110.004 337.814L100.902 334.385C98.131 333.341 96.773 330.212 97.9028 327.474L101.614 318.48C102.134 317.22 103.124 316.211 104.375 315.668L117.455 309.987C120.113 308.833 123.202 310.052 124.356 312.71L129.746 325.133Z" fill="#F5F5F5" fill-opacity="0.25" stroke="#111111" stroke-width="2.09864"/>
<mask id="path-9-inside-1_25_1204" fill="white">
<path fill-rule="evenodd" clip-rule="evenodd" d="M240.155 284.35C238.27 281.562 236.614 278.561 235.226 275.362C223.119 247.46 235.924 215.018 263.827 202.899C291.729 190.781 324.164 203.575 336.271 231.477C348.378 259.379 335.573 291.821 307.67 303.94C302.918 306.003 298.034 307.345 293.142 308.012C296.67 324.414 288.279 341.571 272.299 348.511C254.092 356.418 232.928 348.069 225.028 329.863C217.659 312.881 224.434 293.32 240.155 284.35Z"/>
</mask>
<path d="M240.155 284.35L241.893 283.173L243.163 285.05L241.195 286.173L240.155 284.35ZM293.142 308.012L291.09 308.454L290.614 306.238L292.859 305.932L293.142 308.012ZM237.151 274.526C238.487 277.606 240.08 280.493 241.893 283.173L238.417 285.526C236.459 282.632 234.741 279.517 233.301 276.198L237.151 274.526ZM264.662 204.824C237.822 216.481 225.505 247.688 237.151 274.526L233.301 276.198C220.732 247.232 234.026 213.554 262.991 200.974L264.662 204.824ZM334.346 232.313C322.7 205.475 291.502 193.167 264.662 204.824L262.991 200.974C291.957 188.394 325.627 201.676 338.196 230.641L334.346 232.313ZM306.835 302.014C333.675 290.358 345.991 259.151 334.346 232.313L338.196 230.641C350.764 259.606 337.471 293.285 308.505 305.865L306.835 302.014ZM292.859 305.932C297.563 305.291 302.26 304.001 306.835 302.014L308.505 305.865C303.575 308.006 298.506 309.399 293.425 310.091L292.859 305.932ZM271.463 346.586C286.508 340.051 294.412 323.897 291.09 308.454L295.193 307.57C298.927 324.931 290.049 343.09 273.134 350.436L271.463 346.586ZM226.953 329.027C234.391 346.17 254.319 354.031 271.463 346.586L273.134 350.436C253.864 358.805 231.464 349.969 223.103 330.699L226.953 329.027ZM241.195 286.173C226.393 294.618 220.015 313.038 226.953 329.027L223.103 330.699C215.303 312.723 222.475 292.022 239.116 282.527L241.195 286.173Z" fill="white" mask="url(#path-9-inside-1_25_1204)"/>
<path d="M238.5 227.344C237.119 222.38 233.131 208.024 232.76 205.032C232.296 201.293 242.562 192.893 249.025 189.623C255.488 186.352 270.423 179.634 276.33 183.096C281.056 185.865 288.448 195.528 291.062 199.416" stroke="white" stroke-width="2.09864"/>
<path d="M235.816 232.914C233.823 226.361 229.886 213.049 230.083 212.222C230.281 211.394 232.171 206.524 233.091 204.193" stroke="white" stroke-width="2.09864"/>
<path d="M234.319 228.928L172.677 255.699" stroke="white" stroke-width="2.09864"/>
<path d="M333.771 228.389L382.15 317.089C389.95 331.388 388.489 348.961 378.436 361.78V361.78C367.522 375.697 347.561 378.494 333.249 368.111L293.924 339.581L292.912 342.146C288.132 354.256 277.317 362.945 264.464 365.001L262.397 365.332C250.862 367.177 239.209 362.813 231.724 353.845V353.845L226.639 340.522L212.204 346.791" stroke="white" stroke-width="2.09864"/>
<path d="M217.791 359.666L231.64 353.651" stroke="white" stroke-width="2.09864"/>
<mask id="path-16-inside-2_25_1204" fill="white">
<path fill-rule="evenodd" clip-rule="evenodd" d="M147.522 324.581C146.774 321.299 145.713 318.04 144.325 314.84C132.218 286.939 99.7833 274.144 71.8805 286.263C43.9776 298.381 31.1726 330.824 43.2796 358.725C55.3866 386.627 87.821 399.421 115.724 387.303C120.476 385.239 124.791 382.586 128.618 379.465C138.187 393.244 156.445 398.827 172.425 391.887C190.632 383.979 198.987 362.81 191.087 344.604C183.718 327.621 164.808 319.216 147.522 324.581Z"/>
</mask>
<path d="M147.522 324.581L145.476 325.048L145.98 327.257L148.143 326.585L147.522 324.581ZM128.618 379.465L130.342 378.268L129.05 376.407L127.293 377.838L128.618 379.465ZM142.4 315.676C143.736 318.756 144.757 321.892 145.476 325.048L149.568 324.114C148.791 320.707 147.69 317.324 146.25 314.004L142.4 315.676ZM72.7159 288.188C99.556 276.531 130.754 288.839 142.4 315.676L146.25 314.004C133.681 285.039 100.011 271.757 71.0451 284.337L72.7159 288.188ZM45.2045 357.889C33.559 331.051 45.8758 299.845 72.7159 288.188L71.0451 284.337C42.0795 296.917 28.7861 330.596 41.3547 359.561L45.2045 357.889ZM114.888 385.378C88.0484 397.035 56.85 384.727 45.2045 357.889L41.3547 359.561C53.9232 388.526 87.5936 401.808 116.559 389.228L114.888 385.378ZM127.293 377.838C123.613 380.838 119.463 383.391 114.888 385.378L116.559 389.228C121.489 387.087 125.968 384.333 129.944 381.092L127.293 377.838ZM171.589 389.961C156.544 396.495 139.351 391.241 130.342 378.268L126.895 380.663C137.023 395.248 156.345 401.158 173.26 393.812L171.589 389.961ZM189.162 345.44C196.601 362.582 188.734 382.516 171.589 389.961L173.26 393.812C192.53 385.443 201.374 363.038 193.012 343.768L189.162 345.44ZM148.143 326.585C164.418 321.534 182.224 329.451 189.162 345.44L193.012 343.768C185.212 325.792 165.197 316.897 146.9 322.576L148.143 326.585Z" fill="white" mask="url(#path-16-inside-2_25_1204)"/>
<path d="M107.025 284.445C104.343 280.046 96.5833 267.328 94.652 265.014C92.2377 262.122 79.0948 263.889 72.2932 266.379C65.4916 268.87 50.3868 275.198 48.8811 281.879C47.6766 287.224 49.685 299.226 50.7386 303.791" stroke="white" stroke-width="2.09864"/>
<path d="M112.925 286.287C109.501 280.356 102.469 268.388 101.73 267.968C100.991 267.547 96.1444 265.602 93.8135 264.683" stroke="white" stroke-width="2.09864"/>
<path d="M111.037 282.47L172.678 255.699" stroke="white" stroke-width="2.09864"/>
<path d="M42.7308 354.791L74.4651 450.72C79.5812 466.185 93.4107 477.117 109.637 478.523V478.523C127.252 480.049 142.924 467.37 145.115 449.82L151.136 401.597L153.7 402.608C165.807 407.384 179.537 405.413 189.815 397.423L191.468 396.138C200.692 388.967 205.463 377.471 204.026 365.876V365.876L197.769 353.061L212.205 346.792" stroke="white" stroke-width="2.09864"/>
<path d="M217.792 359.666L203.942 365.681" stroke="white" stroke-width="2.09864"/>
<circle r="15.6" transform="matrix(0.91723 -0.398359 0.39806 0.91736 294.712 270.451)" fill="#ABBFF8"/>
<circle r="14.5507" transform="matrix(0.91723 -0.398359 0.39806 0.91736 294.712 270.451)" stroke="#111111" stroke-opacity="0.9" stroke-width="2.09864"/>
<path d="M286.614 267.256L303.176 273.791" stroke="white" stroke-width="2.09864" stroke-linecap="round" stroke-linejoin="round"/>
<path d="M298.164 262.24L291.627 278.807" stroke="white" stroke-width="2.09864" stroke-linecap="round" stroke-linejoin="round"/>
<circle r="15.6" transform="matrix(0.91723 -0.398359 0.39806 0.91736 308.358 237.378)" fill="#FF9185"/>
<circle r="14.5507" transform="matrix(0.91723 -0.398359 0.39806 0.91736 308.358 237.378)" stroke="#111111" stroke-opacity="0.9" stroke-width="2.09864"/>
<rect width="16.8" height="16.8" rx="8.4" transform="matrix(0.91723 -0.398359 0.39806 0.91736 297.31 233.018)" stroke="white" stroke-width="2.09864" stroke-linecap="round" stroke-linejoin="round"/>
<circle r="15.6" transform="matrix(0.91723 -0.398359 0.39806 0.91736 260.899 257.661)" fill="#DDA0DD"/>
<circle r="14.5507" transform="matrix(0.91723 -0.398359 0.39806 0.91736 260.899 257.661)" stroke="#111111" stroke-opacity="0.9" stroke-width="2.09864"/>
<rect width="13.6" height="13.6" transform="matrix(0.91723 -0.398359 0.39806 0.91736 251.956 254.132)" stroke="white" stroke-width="2.09864" stroke-linecap="round" stroke-linejoin="round"/>
<circle r="15.6" transform="matrix(0.91723 -0.398359 0.39806 0.91736 274.488 223.791)" fill="#5BBEAE"/>
<circle r="14.5507" transform="matrix(0.91723 -0.398359 0.39806 0.91736 274.488 223.791)" stroke="#111111" stroke-opacity="0.9" stroke-width="2.09864"/>
<path d="M271.539 216.643L283.289 225.268L269.814 231.12L271.539 216.643Z" stroke="white" stroke-width="2.09864" stroke-linecap="round" stroke-linejoin="round"/>
<rect x="1.38016" y="0.544597" width="65.1014" height="25.9014" rx="2.6233" transform="matrix(0.91723 -0.398359 0.39806 0.91736 190.739 114.838)" fill="#98D2BD" stroke="black" stroke-width="2.09864"/>
<path d="M230.582 118.335C230.887 118.63 231.074 118.858 231.143 119.018C231.308 119.399 231.14 119.852 230.64 120.379C230.384 120.657 230.157 120.838 229.959 120.924C229.771 121.006 229.593 121.03 229.425 120.996C229.263 120.947 229.13 120.886 229.028 120.811C228.846 120.664 228.067 119.926 226.691 118.598L226.244 118.827L224.373 119.64L225.109 121.336C225.209 121.566 225.275 121.746 225.307 121.874C225.345 121.989 225.357 122.138 225.343 122.322C225.322 122.653 224.994 122.956 224.361 123.231C223.668 123.532 223.182 123.523 222.902 123.204C222.769 123.06 222.627 122.812 222.475 122.462L218.86 114.132C218.76 113.902 218.691 113.729 218.653 113.615C218.621 113.486 218.612 113.33 218.626 113.145C218.647 112.815 218.975 112.512 219.608 112.237L222.815 110.844C223.686 110.466 224.671 110.419 225.77 110.702C226.301 110.841 226.81 111.119 227.297 111.538C227.785 111.956 228.17 112.491 228.452 113.141C228.942 114.272 228.975 115.364 228.55 116.417C228.998 116.852 229.675 117.492 230.582 118.335ZM223.22 116.983L225.12 116.158C225.407 116.033 225.647 115.798 225.838 115.454C226.03 115.109 226.03 114.716 225.839 114.276C225.648 113.836 225.361 113.568 224.978 113.472C224.592 113.367 224.245 113.381 223.938 113.514L222.067 114.326L223.22 116.983Z" fill="black"/>
<path d="M237.617 110.481C238.504 110.928 239.137 111.586 239.515 112.457C239.929 113.466 239.953 114.455 239.585 115.424C239.223 116.378 238.571 117.059 237.631 117.467L233.727 119.163C233.034 119.464 232.545 119.45 232.262 119.121C232.128 118.977 231.986 118.73 231.834 118.38L228.219 110.049C228.115 109.809 228.044 109.632 228.006 109.517C227.978 109.399 227.971 109.247 227.985 109.063C228.006 108.732 228.334 108.43 228.967 108.154L232.708 106.53C233.619 106.134 234.52 106.123 235.412 106.497C236.337 106.868 236.998 107.509 237.393 108.42C237.679 109.08 237.754 109.767 237.617 110.481ZM236.822 113.448C236.718 113.208 236.606 113.031 236.486 112.917C236.375 112.798 236.243 112.737 236.088 112.732C235.855 112.738 235.561 112.819 235.205 112.973C234.848 113.128 234.551 113.174 234.312 113.111C234.073 113.049 233.86 112.802 233.673 112.372C233.482 111.932 233.445 111.603 233.563 111.385C233.69 111.164 233.966 110.96 234.392 110.775C234.788 110.603 234.98 110.395 234.968 110.151C234.95 110.028 234.886 109.841 234.778 109.591C234.669 109.341 234.509 109.202 234.298 109.175C234.096 109.144 233.832 109.199 233.505 109.341L231.427 110.244L233.895 115.932L236.33 114.875C236.953 114.604 237.117 114.129 236.822 113.448Z" fill="black"/>
<rect x="1.38016" y="0.544597" width="65.1014" height="25.9014" rx="2.6233" transform="matrix(0.91723 -0.398359 0.39806 0.91736 -0.575202 197.678)" fill="#D9B4D3" stroke="black" stroke-width="2.09864"/>
<path d="M33.7999 203.12L37.838 201.367C38.1646 201.225 38.4195 201.162 38.6027 201.177C38.7815 201.183 38.9304 201.255 39.0494 201.393C39.1684 201.532 39.2865 201.736 39.4037 202.007C39.5166 202.267 39.583 202.488 39.603 202.669C39.623 202.851 39.5866 202.997 39.4939 203.109C39.3493 203.291 39.1137 203.453 38.7871 203.594L33.4425 205.916C32.7497 206.217 32.2614 206.203 31.9776 205.874C31.8488 205.74 31.7084 205.497 31.5564 205.147L27.9351 196.802C27.8353 196.572 27.7664 196.399 27.7285 196.285C27.6962 196.156 27.6871 196 27.7011 195.815C27.7225 195.485 28.0498 195.182 28.6833 194.907C29.3761 194.606 29.8672 194.613 30.1565 194.927C30.2798 195.076 30.4174 195.325 30.5694 195.675L33.7999 203.12Z" fill="black"/>
<path d="M46.0393 193.434C46.9272 193.881 47.56 194.54 47.9378 195.41C48.3522 196.42 48.3755 197.408 48.0076 198.377C47.6453 199.331 46.994 200.012 46.0538 200.421L42.1493 202.116C41.4565 202.417 40.9682 202.403 40.6844 202.075C40.5512 201.93 40.4086 201.683 40.2567 201.333L36.6419 193.002C36.5377 192.762 36.4667 192.585 36.4288 192.471C36.4009 192.352 36.3939 192.2 36.4079 192.016C36.4293 191.686 36.7566 191.383 37.3901 191.108L41.1313 189.483C42.0418 189.087 42.9429 189.077 43.8344 189.451C44.7599 189.822 45.4203 190.462 45.8154 191.373C46.102 192.033 46.1766 192.72 46.0393 193.434ZM45.2449 196.401C45.1407 196.161 45.0285 195.984 44.9084 195.87C44.7981 195.751 44.6656 195.69 44.5109 195.686C44.2782 195.692 43.9837 195.772 43.6274 195.927C43.2711 196.081 42.9735 196.127 42.7345 196.065C42.4956 196.002 42.2828 195.755 42.0961 195.325C41.905 194.885 41.8682 194.556 41.9855 194.339C42.1128 194.117 42.3892 193.913 42.8148 193.729C43.2107 193.557 43.4026 193.348 43.3906 193.104C43.3726 192.981 43.3092 192.794 43.2007 192.544C43.0921 192.294 42.932 192.156 42.7204 192.129C42.5186 192.097 42.2544 192.153 41.9278 192.294L39.8493 193.197L42.3178 198.886L44.7525 197.828C45.3761 197.558 45.5402 197.082 45.2449 196.401Z" fill="black"/>
<path d="M16.5025 231.635C15.9258 230.306 16.5356 228.76 17.8645 228.183L72.765 204.339C74.0939 203.762 75.6387 204.372 76.2154 205.701L87.4172 231.516C91.8002 241.617 87.166 253.362 77.0665 257.748L53.9273 267.797C43.8278 272.184 32.0873 267.551 27.7043 257.45L16.5025 231.635Z" fill="#D9B4D3" stroke="black" stroke-width="2.09864"/>
<path d="M45.1921 243.896L49.2382 242.139C49.5654 241.997 49.8206 241.933 50.0037 241.947C50.1825 241.952 50.331 242.023 50.4493 242.16C50.5676 242.296 50.6847 242.498 50.8006 242.765C50.9123 243.023 50.9776 243.241 50.9968 243.421C51.0159 243.601 50.9788 243.746 50.8856 243.858C50.7401 244.038 50.5037 244.2 50.1765 244.342L44.8214 246.668C44.1273 246.969 43.6391 246.958 43.3569 246.633C43.2287 246.501 43.0895 246.261 42.9392 245.915L39.3584 237.663C39.2596 237.435 39.1916 237.265 39.1543 237.152C39.1226 237.024 39.1142 236.869 39.1291 236.686C39.152 236.359 39.4808 236.057 40.1155 235.782C40.8097 235.48 41.3006 235.484 41.5884 235.795C41.711 235.941 41.8474 236.188 41.9977 236.534L45.1921 243.896Z" fill="black"/>
<path d="M48.2296 232.24L56.5001 228.648C56.8175 228.51 57.0677 228.449 57.2508 228.463C57.4296 228.468 57.5781 228.539 57.6964 228.675C57.8147 228.812 57.9297 229.009 58.0413 229.266C58.1529 229.524 58.2183 229.742 58.2374 229.922C58.2522 230.092 58.213 230.233 58.1198 230.344C57.9799 230.51 57.7464 230.665 57.4191 230.807L54.578 232.041L57.8175 239.506C57.9163 239.734 57.9793 239.906 58.0067 240.024C58.044 240.137 58.0552 240.285 58.0403 240.468C58.031 240.637 57.945 240.792 57.7824 240.933C57.6197 241.074 57.3847 241.211 57.0772 241.345C56.7698 241.478 56.509 241.556 56.2948 241.579C56.0906 241.597 55.9187 241.554 55.7793 241.45C55.6455 241.332 55.545 241.222 55.478 241.122C55.4165 241.008 55.3364 240.837 55.2377 240.609L52.0046 233.158L49.1486 234.399C48.8312 234.536 48.5832 234.603 48.4043 234.598C48.2212 234.584 48.0706 234.508 47.9523 234.371C47.834 234.235 47.719 234.038 47.6074 233.78C47.4958 233.523 47.4325 233.309 47.4177 233.139C47.3986 232.96 47.4357 232.814 47.5289 232.703C47.6688 232.536 47.9023 232.382 48.2296 232.24Z" fill="black"/>
<path d="M208.615 148.737C208.038 147.408 208.648 145.863 209.977 145.286L264.877 121.442C266.206 120.865 267.751 121.474 268.328 122.804L279.53 148.619C283.913 158.72 279.278 170.464 269.179 174.851L246.04 184.9C235.94 189.286 224.2 184.654 219.817 174.553L208.615 148.737Z" fill="#98D2BD" stroke="black" stroke-width="2.09864"/>
<path d="M246.075 158.241C246.378 158.532 246.564 158.757 246.633 158.915C246.796 159.291 246.625 159.741 246.12 160.266C245.862 160.543 245.634 160.724 245.435 160.81C245.246 160.892 245.068 160.917 244.9 160.884C244.738 160.837 244.605 160.777 244.503 160.704C244.322 160.559 243.546 159.833 242.174 158.524L241.725 158.755L239.846 159.571L240.573 161.247C240.672 161.475 240.737 161.652 240.768 161.779C240.806 161.892 240.817 162.04 240.802 162.223C240.778 162.551 240.448 162.853 239.812 163.129C239.116 163.431 238.629 163.425 238.351 163.111C238.218 162.969 238.077 162.725 237.927 162.379L234.354 154.146C234.255 153.918 234.187 153.748 234.15 153.635C234.119 153.507 234.11 153.352 234.126 153.169C234.149 152.842 234.479 152.54 235.115 152.264L238.337 150.864C239.211 150.484 240.199 150.432 241.299 150.706C241.83 150.84 242.338 151.113 242.824 151.525C243.31 151.937 243.692 152.464 243.971 153.107C244.456 154.225 244.482 155.306 244.05 156.352C244.496 156.781 245.171 157.411 246.075 158.241ZM238.706 156.945L240.615 156.116C240.904 155.991 241.145 155.757 241.339 155.414C241.533 155.071 241.535 154.682 241.346 154.247C241.157 153.812 240.872 153.548 240.489 153.456C240.102 153.354 239.754 153.369 239.446 153.503L237.567 154.319L238.706 156.945Z" fill="black"/>
<path d="M243.309 148.687L251.601 145.086C251.919 144.948 252.17 144.886 252.353 144.9C252.533 144.905 252.681 144.975 252.8 145.112C252.918 145.249 253.033 145.445 253.145 145.703C253.256 145.96 253.322 146.178 253.341 146.358C253.355 146.528 253.316 146.668 253.222 146.78C253.082 146.946 252.848 147.101 252.519 147.244L249.671 148.481L252.909 155.943C253.007 156.17 253.07 156.342 253.098 156.46C253.135 156.573 253.146 156.721 253.131 156.904C253.121 157.073 253.035 157.228 252.872 157.369C252.709 157.51 252.473 157.648 252.165 157.782C251.857 157.916 251.595 157.994 251.38 158.017C251.176 158.035 251.004 157.992 250.864 157.888C250.73 157.77 250.629 157.661 250.562 157.561C250.501 157.447 250.421 157.276 250.322 157.048L247.091 149.601L244.227 150.845C243.909 150.983 243.66 151.05 243.481 151.045C243.298 151.031 243.147 150.956 243.028 150.819C242.91 150.682 242.795 150.485 242.683 150.228C242.572 149.971 242.509 149.758 242.494 149.588C242.475 149.408 242.512 149.262 242.606 149.151C242.746 148.985 242.981 148.83 243.309 148.687Z" fill="black"/>
<rect x="1.38016" y="0.544597" width="65.1014" height="65.1014" rx="32.5289" transform="matrix(0.91723 -0.398359 0.39806 0.91736 113.895 343.535)" stroke="#121212" stroke-width="2.09864"/>
<rect x="1.38016" y="0.544597" width="44.3014" height="44.3014" rx="22.1507" transform="matrix(0.91723 -0.398359 0.39806 0.91736 127.768 345.361)" fill="#CEB3FA" stroke="#121212" stroke-width="2.09864"/>
<rect x="1.38016" y="0.544597" width="65.1014" height="65.1014" rx="32.5289" transform="matrix(0.91723 -0.398359 0.39806 0.91736 213.159 298.307)" stroke="#121212" stroke-width="2.09864"/>
<rect x="1.38016" y="0.544597" width="44.3014" height="44.3014" rx="22.1507" transform="matrix(0.91723 -0.398359 0.39806 0.91736 227.891 304.12)" fill="#D2E7A5" stroke="#121212" stroke-width="2.09864"/>
</g>
</svg>
