<svg width="97" height="83" viewBox="0 0 97 83" fill="none" xmlns="http://www.w3.org/2000/svg">
<path fill-rule="evenodd" clip-rule="evenodd" d="M48.0509 44.5074C50.8619 34.0031 61.5626 27.7473 71.9517 30.5348C76.9406 31.8734 81.189 35.1611 83.7623 39.6745C86.3355 44.188 87.0227 49.5575 85.6728 54.6019C82.8618 65.1063 72.161 71.362 61.772 68.5745C51.383 65.787 45.2398 55.0118 48.0509 44.5074ZM81.2537 69.8397L85.6455 75.8667L85.7428 75.8928C86.5696 77.343 86.0723 79.2011 84.6322 80.043C83.1921 80.8849 81.3544 80.3918 80.5277 78.9417L77.3048 72.3639C76.9838 71.8032 76.8977 71.1353 77.0656 70.5079C77.2335 69.8805 77.6416 69.3452 78.1996 69.0202C79.2727 68.4055 80.6314 68.7701 81.2537 69.8397Z" fill="url(#paint0_linear_401_4904)"/>
<g filter="url(#filter0_f_401_4904)">
<path d="M69.6361 39.1921C63.976 37.6738 58.1458 41.0829 56.6139 46.8065C55.0819 52.5302 58.4284 58.401 64.0884 59.9193C69.7484 61.4377 75.5786 58.0286 77.1106 52.3049C77.8463 49.5563 77.4721 46.6307 76.0703 44.1715C74.6686 41.7124 72.3541 39.9213 69.6361 39.1921Z" fill="#0062FF" fill-opacity="0.5"/>
</g>
<g filter="url(#filter1_b_401_4904)">
<g filter="url(#filter2_b_401_4904)">
<mask id="path-3-outside-1_401_4904" maskUnits="userSpaceOnUse" x="-0.482117" y="-1.22314" width="85.7082" height="85.7567" fill="black">
<rect fill="white" x="-0.482117" y="-1.22314" width="85.7082" height="85.7567"/>
<path fill-rule="evenodd" clip-rule="evenodd" d="M74.0131 28.3706C69.8201 12.7021 53.8586 3.37084 38.3621 7.52876C30.9204 9.52546 24.5834 14.4294 20.7451 21.1618C16.9069 27.8941 15.8818 35.9035 17.8953 43.4278C22.0883 59.0963 38.0498 68.4275 53.5463 64.2696C69.0428 60.1117 78.2061 44.0392 74.0131 28.3706ZM24.4882 66.1585L17.9373 75.1485L17.7922 75.1875C16.559 77.3505 17.3006 80.1221 19.4488 81.3779C21.5969 82.6337 24.338 81.8982 25.5712 79.7352L30.3785 69.9237C30.8573 69.0872 30.9857 68.091 30.7352 67.1551C30.4848 66.2193 29.8762 65.4208 29.0438 64.9362C27.4432 64.0192 25.4164 64.563 24.4882 66.1585Z"/>
</mask>
<path fill-rule="evenodd" clip-rule="evenodd" d="M74.0131 28.3706C69.8201 12.7021 53.8586 3.37084 38.3621 7.52876C30.9204 9.52546 24.5834 14.4294 20.7451 21.1618C16.9069 27.8941 15.8818 35.9035 17.8953 43.4278C22.0883 59.0963 38.0498 68.4275 53.5463 64.2696C69.0428 60.1117 78.2061 44.0392 74.0131 28.3706ZM24.4882 66.1585L17.9373 75.1485L17.7922 75.1875C16.559 77.3505 17.3006 80.1221 19.4488 81.3779C21.5969 82.6337 24.338 81.8982 25.5712 79.7352L30.3785 69.9237C30.8573 69.0872 30.9857 68.091 30.7352 67.1551C30.4848 66.2193 29.8762 65.4208 29.0438 64.9362C27.4432 64.0192 25.4164 64.563 24.4882 66.1585Z" fill="#3EA0FE" fill-opacity="0.35"/>
<path d="M38.3621 7.52876L38.1035 6.56277L38.3621 7.52876ZM74.0131 28.3706L74.979 28.1116L74.0131 28.3706ZM20.7451 21.1618L19.8766 20.6666L19.8766 20.6666L20.7451 21.1618ZM17.8953 43.4278L16.9294 43.6868L17.8953 43.4278ZM53.5463 64.2696L53.2877 63.3036L53.5463 64.2696ZM17.9373 75.1485L18.7452 75.7374C18.6105 75.9222 18.4166 76.0553 18.1959 76.1145L17.9373 75.1485ZM24.4882 66.1585L25.3523 66.6612C25.3351 66.6909 25.3163 66.7196 25.2961 66.7473L24.4882 66.1585ZM17.7922 75.1875L16.9237 74.6923C17.056 74.4602 17.2756 74.2907 17.5336 74.2215L17.7922 75.1875ZM19.4488 81.3779L18.9439 82.2414L18.9439 82.2414L19.4488 81.3779ZM25.5712 79.7352L26.469 80.175C26.4598 80.1937 26.45 80.2122 26.4397 80.2303L25.5712 79.7352ZM30.3785 69.9237L29.4807 69.4839C29.4901 69.4646 29.5002 69.4457 29.5108 69.4271L30.3785 69.9237ZM30.7352 67.1551L29.7694 67.4142L30.7352 67.1551ZM29.0438 64.9362L29.541 64.0682L29.5471 64.0717L29.0438 64.9362ZM38.1035 6.56277C54.1433 2.25908 70.6458 11.9194 74.979 28.1116L73.0472 28.6297C68.9944 13.4847 53.5739 4.48261 38.6207 8.49474L38.1035 6.56277ZM19.8766 20.6666C23.8464 13.7036 30.4023 8.62912 38.1035 6.56277L38.6207 8.49474C31.4386 10.4218 25.3204 15.1552 21.6136 21.6569L19.8766 20.6666ZM16.9294 43.6868C14.8482 35.9097 15.9071 27.6292 19.8766 20.6666L21.6136 21.6569C17.9066 28.1591 16.9153 35.8972 18.8612 43.1687L16.9294 43.6868ZM53.8049 65.2356C37.7651 69.5393 21.2626 59.879 16.9294 43.6868L18.8612 43.1687C22.914 58.3136 38.3345 67.3158 53.2877 63.3036L53.8049 65.2356ZM74.979 28.1116C79.3121 44.3037 69.8447 60.9319 53.8049 65.2356L53.2877 63.3036C68.241 59.2915 77.1001 43.7747 73.0472 28.6297L74.979 28.1116ZM17.1294 74.5597L23.6803 65.5696L25.2961 66.7473L18.7452 75.7374L17.1294 74.5597ZM17.5336 74.2215L17.6787 74.1826L18.1959 76.1145L18.0508 76.1535L17.5336 74.2215ZM18.9439 82.2414C16.3227 80.7091 15.419 77.3316 16.9237 74.6923L18.6607 75.6826C17.6989 77.3695 18.2785 79.5351 19.9536 80.5143L18.9439 82.2414ZM26.4397 80.2303C24.9308 82.8769 21.5725 83.7781 18.9439 82.2414L19.9536 80.5143C21.6213 81.4893 23.7452 80.9196 24.7027 79.24L26.4397 80.2303ZM31.2762 70.3635L26.469 80.175L24.6734 79.2954L29.4807 69.4839L31.2762 70.3635ZM31.7011 66.8961C32.0193 68.0853 31.8569 69.3533 31.2461 70.4203L29.5108 69.4271C29.8577 68.8211 29.952 68.0966 29.7694 67.4142L31.7011 66.8961ZM29.5471 64.0717C30.6089 64.69 31.3828 65.7068 31.7011 66.8961L29.7694 67.4142C29.5867 66.7318 29.1434 66.1517 28.5404 65.8006L29.5471 64.0717ZM23.6241 65.6558C24.8287 63.5851 27.4636 62.878 29.541 64.0682L28.5465 65.8041C27.4228 65.1603 26.0041 65.5409 25.3523 66.6612L23.6241 65.6558Z" fill="url(#paint1_linear_401_4904)" mask="url(#path-3-outside-1_401_4904)"/>
</g>
</g>
<defs>
<filter id="filter0_f_401_4904" x="41.2424" y="23.8311" width="51.2369" height="51.4493" filterUnits="userSpaceOnUse" color-interpolation-filters="sRGB">
<feFlood flood-opacity="0" result="BackgroundImageFix"/>
<feBlend mode="normal" in="SourceGraphic" in2="BackgroundImageFix" result="shape"/>
<feGaussianBlur stdDeviation="7.5" result="effect1_foregroundBlur_401_4904"/>
</filter>
<filter id="filter1_b_401_4904" x="-8.11365" y="-18.4611" width="108.143" height="125.452" filterUnits="userSpaceOnUse" color-interpolation-filters="sRGB">
<feFlood flood-opacity="0" result="BackgroundImageFix"/>
<feGaussianBlur in="BackgroundImage" stdDeviation="12"/>
<feComposite in2="SourceAlpha" operator="in" result="effect1_backgroundBlur_401_4904"/>
<feBlend mode="normal" in="SourceGraphic" in2="effect1_backgroundBlur_401_4904" result="shape"/>
</filter>
<filter id="filter2_b_401_4904" x="-8.11365" y="-18.4611" width="108.143" height="125.452" filterUnits="userSpaceOnUse" color-interpolation-filters="sRGB">
<feFlood flood-opacity="0" result="BackgroundImageFix"/>
<feGaussianBlur in="BackgroundImage" stdDeviation="12"/>
<feComposite in2="SourceAlpha" operator="in" result="effect1_backgroundBlur_401_4904"/>
<feBlend mode="normal" in="SourceGraphic" in2="effect1_backgroundBlur_401_4904" result="shape"/>
</filter>
<linearGradient id="paint0_linear_401_4904" x1="97.175" y1="37.3012" x2="38.5595" y2="63.492" gradientUnits="userSpaceOnUse">
<stop stop-color="#39AFFD"/>
<stop offset="1" stop-color="#477FFF"/>
</linearGradient>
<linearGradient id="paint1_linear_401_4904" x1="58.0482" y1="10.4203" x2="17.4362" y2="78.8108" gradientUnits="userSpaceOnUse">
<stop stop-color="white" stop-opacity="0.25"/>
<stop offset="1" stop-color="white" stop-opacity="0"/>
</linearGradient>
</defs>
</svg>
