<svg width="80" height="80" viewBox="0 0 80 80" fill="none" xmlns="http://www.w3.org/2000/svg">
<path fill-rule="evenodd" clip-rule="evenodd" d="M6.42505 24.3877H68.2589L61.8555 5.36026C60.4332 1.13413 56.1125 -1.04487 52.2049 0.493309L15.297 15.0217C11.0682 16.6863 7.94776 20.1866 6.42505 24.3877Z" fill="#A166AB"/>
<g filter="url(#filter0_bii_401_4490)">
<path d="M0 37.2485C0 24.3186 9.69172 13.8369 21.6471 13.8369H58.3529C70.3083 13.8369 80 24.3186 80 37.2485V56.5885C80 69.5184 70.3083 80.0001 58.3529 80.0001H21.6471C9.69172 80.0001 0 69.5184 0 56.5885V37.2485Z" fill="white" fill-opacity="0.03"/>
</g>
<g filter="url(#filter1_i_401_4490)">
<path d="M66.1175 46.9182C66.1175 51.275 62.8518 54.8069 58.8234 54.8069C54.795 54.8069 51.5293 51.275 51.5293 46.9182C51.5293 42.5614 54.795 39.0295 58.8234 39.0295C62.8518 39.0295 66.1175 42.5614 66.1175 46.9182Z" fill="white" fill-opacity="0.1"/>
</g>
<defs>
<filter id="filter0_bii_401_4490" x="-86" y="-72.1631" width="252" height="238.163" filterUnits="userSpaceOnUse" color-interpolation-filters="sRGB">
<feFlood flood-opacity="0" result="BackgroundImageFix"/>
<feGaussianBlur in="BackgroundImage" stdDeviation="43"/>
<feComposite in2="SourceAlpha" operator="in" result="effect1_backgroundBlur_401_4490"/>
<feBlend mode="normal" in="SourceGraphic" in2="effect1_backgroundBlur_401_4490" result="shape"/>
<feColorMatrix in="SourceAlpha" type="matrix" values="0 0 0 0 0 0 0 0 0 0 0 0 0 0 0 0 0 0 127 0" result="hardAlpha"/>
<feOffset dy="4"/>
<feGaussianBlur stdDeviation="2"/>
<feComposite in2="hardAlpha" operator="arithmetic" k2="-1" k3="1"/>
<feColorMatrix type="matrix" values="0 0 0 0 1 0 0 0 0 1 0 0 0 0 1 0 0 0 0.15 0"/>
<feBlend mode="normal" in2="shape" result="effect2_innerShadow_401_4490"/>
<feColorMatrix in="SourceAlpha" type="matrix" values="0 0 0 0 0 0 0 0 0 0 0 0 0 0 0 0 0 0 127 0" result="hardAlpha"/>
<feOffset/>
<feGaussianBlur stdDeviation="34"/>
<feComposite in2="hardAlpha" operator="arithmetic" k2="-1" k3="1"/>
<feColorMatrix type="matrix" values="0 0 0 0 1 0 0 0 0 1 0 0 0 0 1 0 0 0 0.05 0"/>
<feBlend mode="normal" in2="effect2_innerShadow_401_4490" result="effect3_innerShadow_401_4490"/>
</filter>
<filter id="filter1_i_401_4490" x="51.5293" y="39.0295" width="14.5883" height="17.7773" filterUnits="userSpaceOnUse" color-interpolation-filters="sRGB">
<feFlood flood-opacity="0" result="BackgroundImageFix"/>
<feBlend mode="normal" in="SourceGraphic" in2="BackgroundImageFix" result="shape"/>
<feColorMatrix in="SourceAlpha" type="matrix" values="0 0 0 0 0 0 0 0 0 0 0 0 0 0 0 0 0 0 127 0" result="hardAlpha"/>
<feOffset dy="2"/>
<feGaussianBlur stdDeviation="1"/>
<feComposite in2="hardAlpha" operator="arithmetic" k2="-1" k3="1"/>
<feColorMatrix type="matrix" values="0 0 0 0 1 0 0 0 0 1 0 0 0 0 1 0 0 0 0.3 0"/>
<feBlend mode="normal" in2="shape" result="effect1_innerShadow_401_4490"/>
</filter>
</defs>
</svg>
