<svg width="50" height="50" viewBox="0 0 50 50" fill="none" xmlns="http://www.w3.org/2000/svg">
<circle opacity="0.2" cx="25" cy="25" r="24" stroke="#94959E" stroke-width="2"/>
<path d="M25 33C27.1217 33 29.1566 32.1571 30.6569 30.6569C32.1571 29.1566 33 27.1217 33 25C33 22.8783 32.1571 20.8434 30.6569 19.3431C29.1566 17.8429 27.1217 17 25 17C22.8783 17 20.8434 17.8429 19.3431 19.3431C17.8429 20.8434 17 22.8783 17 25C17 27.1217 17.8429 29.1566 19.3431 30.6569C20.8434 32.1571 22.8783 33 25 33ZM25 35C19.477 35 15 30.523 15 25C15 19.477 19.477 15 25 15C30.523 15 35 19.477 35 25C35 30.523 30.523 35 25 35ZM21.89 26.17L19.392 25.391C18.852 25.226 18.849 24.854 19.513 24.587L29.246 20.827C29.811 20.597 30.131 20.888 29.948 21.617L28.291 29.437C28.175 29.994 27.84 30.127 27.375 29.87L24.824 27.982L23.635 29.13C23.513 29.248 23.414 29.349 23.226 29.374C23.039 29.4 22.885 29.344 22.772 29.034L21.902 26.163L21.89 26.171V26.17Z" fill="white"/>
</svg>
