<svg width="944" height="779" viewBox="0 0 944 779" fill="none" xmlns="http://www.w3.org/2000/svg">
<g opacity="0.15">
<mask id="path-1-inside-1_401_4792" fill="white">
<path d="M925.197 426.583L757.789 285.677L432.819 12.1542C422.365 3.37592 408.857 -0.89741 395.257 0.271668C381.657 1.44075 369.076 7.95675 360.274 18.3902L12.1543 431.988C3.37597 442.441 -0.897411 455.95 0.271668 469.55C1.44075 483.15 7.95681 495.731 18.3903 504.533L343.36 778.056L359.937 758.36L330.395 733.495L413.28 635.019L442.823 659.885L459.4 640.19L429.857 615.324L512.743 516.848L542.286 541.714L558.863 522.019L529.32 497.153L612.206 398.677L641.749 423.543L671.291 448.409L621.56 507.494L641.255 524.071L690.986 464.986L750.072 514.717L700.34 573.803L720.036 590.38L769.767 531.294L809.157 564.449C819.611 573.227 833.119 577.5 846.719 576.331C860.319 575.162 872.9 568.646 881.702 558.213L931.433 499.127C940.212 488.674 944.485 475.165 943.316 461.565C942.147 447.965 935.631 435.384 925.197 426.583ZM434.95 249.483L352.064 347.959L292.978 298.227L375.864 199.752L434.95 249.483ZM392.441 180.056L475.327 81.5808L534.412 131.312L451.527 229.788L392.441 180.056ZM273.283 281.65L214.198 231.919L297.084 133.443L356.169 183.174L273.283 281.65ZM256.706 301.345L173.821 399.821L114.735 350.09L197.621 251.614L256.706 301.345ZM276.401 317.922L335.487 367.654L252.601 466.13L193.516 416.398L276.401 317.922ZM236.024 485.825L153.138 584.3L94.0528 534.569L176.939 436.093L236.024 485.825ZM255.719 502.402L314.805 552.133L231.919 650.609L172.833 600.878L255.719 502.402ZM272.296 482.707L355.182 384.231L414.267 433.962L331.382 532.438L272.296 482.707ZM371.759 364.536L454.645 266.06L513.73 315.792L430.844 414.267L371.759 364.536ZM471.222 246.365L554.107 147.889L613.193 197.621L530.307 296.096L471.222 246.365ZM632.888 214.198L691.973 263.929L609.088 362.405L550.002 312.674L632.888 214.198ZM416.241 31.8494L455.632 65.0037L372.746 163.479L313.661 113.748L379.969 34.9674C384.37 29.751 390.661 26.4932 397.461 25.9087C404.261 25.3242 411.015 27.4606 416.241 31.8494ZM31.8494 448.565L98.1579 369.785L157.243 419.516L74.3577 517.992L34.9674 484.838C29.7511 480.437 26.4933 474.146 25.9088 467.346C25.3242 460.546 27.4607 453.792 31.8494 448.565ZM310.699 716.918L251.614 667.186L334.5 568.71L393.585 618.442L310.699 716.918ZM410.162 598.747L351.077 549.015L433.962 450.54L493.048 500.271L410.162 598.747ZM509.625 480.576L450.54 430.844L533.425 332.369L592.511 382.1L509.625 480.576ZM628.783 378.982L711.669 280.506L741.211 305.372L770.754 330.238L687.868 428.713L658.326 403.848L628.783 378.982ZM790.449 346.815L849.535 396.546L766.649 495.022L707.564 445.291C739.932 406.833 758.08 385.272 790.449 346.815ZM825.734 544.753L786.344 511.599L869.23 413.123L908.62 446.278C913.836 450.679 917.094 456.969 917.679 463.769C918.263 470.569 916.127 477.323 911.738 482.55L862.007 541.635C857.606 546.852 851.315 550.11 844.515 550.694C837.715 551.279 830.961 549.142 825.734 544.753Z"/>
</mask>
<path d="M925.197 426.583L757.789 285.677L432.819 12.1542C422.365 3.37592 408.857 -0.89741 395.257 0.271668C381.657 1.44075 369.076 7.95675 360.274 18.3902L12.1543 431.988C3.37597 442.441 -0.897411 455.95 0.271668 469.55C1.44075 483.15 7.95681 495.731 18.3903 504.533L343.36 778.056L359.937 758.36L330.395 733.495L413.28 635.019L442.823 659.885L459.4 640.19L429.857 615.324L512.743 516.848L542.286 541.714L558.863 522.019L529.32 497.153L612.206 398.677L641.749 423.543L671.291 448.409L621.56 507.494L641.255 524.071L690.986 464.986L750.072 514.717L700.34 573.803L720.036 590.38L769.767 531.294L809.157 564.449C819.611 573.227 833.119 577.5 846.719 576.331C860.319 575.162 872.9 568.646 881.702 558.213L931.433 499.127C940.212 488.674 944.485 475.165 943.316 461.565C942.147 447.965 935.631 435.384 925.197 426.583ZM434.95 249.483L352.064 347.959L292.978 298.227L375.864 199.752L434.95 249.483ZM392.441 180.056L475.327 81.5808L534.412 131.312L451.527 229.788L392.441 180.056ZM273.283 281.65L214.198 231.919L297.084 133.443L356.169 183.174L273.283 281.65ZM256.706 301.345L173.821 399.821L114.735 350.09L197.621 251.614L256.706 301.345ZM276.401 317.922L335.487 367.654L252.601 466.13L193.516 416.398L276.401 317.922ZM236.024 485.825L153.138 584.3L94.0528 534.569L176.939 436.093L236.024 485.825ZM255.719 502.402L314.805 552.133L231.919 650.609L172.833 600.878L255.719 502.402ZM272.296 482.707L355.182 384.231L414.267 433.962L331.382 532.438L272.296 482.707ZM371.759 364.536L454.645 266.06L513.73 315.792L430.844 414.267L371.759 364.536ZM471.222 246.365L554.107 147.889L613.193 197.621L530.307 296.096L471.222 246.365ZM632.888 214.198L691.973 263.929L609.088 362.405L550.002 312.674L632.888 214.198ZM416.241 31.8494L455.632 65.0037L372.746 163.479L313.661 113.748L379.969 34.9674C384.37 29.751 390.661 26.4932 397.461 25.9087C404.261 25.3242 411.015 27.4606 416.241 31.8494ZM31.8494 448.565L98.1579 369.785L157.243 419.516L74.3577 517.992L34.9674 484.838C29.7511 480.437 26.4933 474.146 25.9088 467.346C25.3242 460.546 27.4607 453.792 31.8494 448.565ZM310.699 716.918L251.614 667.186L334.5 568.71L393.585 618.442L310.699 716.918ZM410.162 598.747L351.077 549.015L433.962 450.54L493.048 500.271L410.162 598.747ZM509.625 480.576L450.54 430.844L533.425 332.369L592.511 382.1L509.625 480.576ZM628.783 378.982L711.669 280.506L741.211 305.372L770.754 330.238L687.868 428.713L658.326 403.848L628.783 378.982ZM790.449 346.815L849.535 396.546L766.649 495.022L707.564 445.291C739.932 406.833 758.08 385.272 790.449 346.815ZM825.734 544.753L786.344 511.599L869.23 413.123L908.62 446.278C913.836 450.679 917.094 456.969 917.679 463.769C918.263 470.569 916.127 477.323 911.738 482.55L862.007 541.635C857.606 546.852 851.315 550.11 844.515 550.694C837.715 551.279 830.961 549.142 825.734 544.753Z" stroke="white" stroke-width="4" mask="url(#path-1-inside-1_401_4792)"/>
</g>
</svg>
