<svg width="2261" height="2086" viewBox="0 0 2261 2086" fill="none" xmlns="http://www.w3.org/2000/svg">
<path d="M1407.04 205.716C1366.93 228.806 1334.1 262.669 1305.96 298.986C1292.3 316.625 1279.33 334.903 1267.19 353.623C1255.61 371.486 1245.58 390.194 1234.61 408.42C1223 427.684 1212.49 447.551 1201.4 467.103C1191.04 485.342 1180.17 503.27 1169.6 521.378C1145.91 561.941 1118.15 601.356 1086.52 636.153C1055.43 670.333 1018.78 697.148 977.255 717.278C934.918 737.815 889.846 752.024 844.087 762.764C748.379 785.243 650.322 794.05 553.312 809.004C462.496 822.991 370.807 841.182 289.757 886.571C279.55 892.297 269.567 898.426 259.897 905.034" stroke="white" stroke-opacity="0.05" stroke-width="3.27711" stroke-miterlimit="10" stroke-linecap="round"/>
<path d="M1477.82 260.938C1436.79 279.255 1404.16 312.455 1374.87 345.54C1359.97 362.356 1345.28 379.61 1333.09 398.534C1321.64 416.319 1309.45 433.753 1297.3 451.116C1285.63 467.802 1272.93 483.714 1261.02 500.197C1247.84 518.475 1234.38 536.123 1219.02 552.721C1187.84 586.446 1155.17 618.308 1114.65 640.762C1110.68 642.967 1106.57 644.843 1102.56 646.944C1097.62 649.545 1093.08 653.196 1088.4 656.288C1078.58 662.752 1068.55 668.91 1058.38 674.806C1038.44 686.399 1017.95 697.053 997.183 707.01C974.205 718.014 950.761 728.006 927.081 737.364C904.396 746.331 881.308 754.248 858.24 762.304C846.079 766.563 833.848 770.67 821.61 774.695C815.833 776.596 810.053 778.456 804.257 780.326C798.711 782.108 793.703 784.773 788.265 786.769C764.442 795.501 739.47 801.888 715.146 809.089C667.654 823.154 619.977 837.482 573.664 855.041C549.865 864.061 525.319 871.679 501.452 880.762C479.389 889.156 457.301 897.155 435.576 906.423C390.512 925.64 346.556 947.704 305.138 973.968C295.431 980.123 285.883 986.505 276.543 993.193" stroke="white" stroke-opacity="0.05" stroke-width="3.27711" stroke-miterlimit="10" stroke-linecap="round"/>
<path d="M1554.75 307.382C1536.15 312.28 1518.35 324.299 1502.82 335.19C1482.94 349.122 1465.29 365.631 1447.39 381.88C1438.59 389.855 1429.9 398.07 1422.17 407.081C1416.59 413.594 1411.78 420.546 1405.84 426.783C1399.2 433.749 1393.37 441.342 1386.86 448.422C1379.84 456.048 1372 462.991 1365 470.691C1359.18 477.091 1352.93 483.08 1346.96 489.336C1340.8 495.79 1335.31 502.792 1328.88 509.044C1311.93 525.511 1293.32 540.743 1274.55 555.062C1255.79 569.371 1235.72 581.927 1214.52 592.301C1206.24 596.359 1196.31 598.584 1189.05 604.111C1179.38 611.497 1169.52 618.61 1159.54 625.558C1072.25 686.184 976.886 733.686 880.936 778.803C874.979 781.614 868.719 784.069 863.044 787.377C857.637 790.522 852.553 793.665 846.864 796.312C834.025 802.258 821.173 808.148 808.284 813.975C783.718 825.104 759.095 836.139 734.411 847.038C709.049 858.242 683.716 869.494 658.448 880.922C634.384 891.81 610.915 903.675 587.031 914.929C561.649 926.88 536.417 939.15 511.404 951.849C503.137 956.045 494.409 959.271 486.06 963.367C473.546 969.526 461.102 975.837 448.745 982.289C402.085 1006.65 356.368 1032.98 312.547 1062.18C302.448 1068.9 292.454 1075.79 282.601 1082.88" stroke="white" stroke-opacity="0.05" stroke-width="3.27711" stroke-miterlimit="10" stroke-linecap="round"/>
<path d="M1634.12 349.844C1626.29 350.427 1618.31 354.906 1611.44 358.314C1599.77 364.129 1588.3 370.474 1577.26 377.42C1555.12 391.352 1533.95 407.494 1513.87 424.233C1506.55 430.337 1500.54 437.324 1493.75 443.839C1487.61 449.745 1481.14 455.329 1474.94 461.141C1467.11 468.463 1459.38 475.919 1451.65 483.358C1445.39 489.372 1438.62 494.883 1432.46 500.973C1425.56 507.795 1419.34 514.958 1411.84 521.275C1402.48 529.165 1392.36 536.267 1382.81 543.642C1362.25 559.543 1340.69 573.4 1317.64 585.379C1309.74 589.478 1301.79 592.597 1293.58 595.812C1288.92 597.635 1284.62 601.788 1280.52 604.765C1275.45 608.436 1270.37 612.076 1265.25 615.652C1242.93 631.312 1220.13 646.267 1197.08 660.837C1173.56 675.696 1149.81 690.217 1125.82 704.319C1113.23 711.735 1100.59 719.032 1087.89 726.233C1075.9 733.044 1063.77 741.324 1050.91 746.353C1038.13 751.334 1026.13 759.537 1014.08 766.104C1001.32 773.063 988.52 779.958 975.691 786.807C963.036 793.549 950.352 800.244 937.639 806.893C925.893 813.037 914.87 820.297 903.096 826.395C852.95 852.34 802.488 877.657 752.124 903.173C726.631 916.077 701.161 929.054 675.762 942.182C663.716 948.402 652.442 955.816 640.425 962.082C627.775 968.692 615.144 975.333 602.535 982.047C589.76 988.841 577.007 995.708 564.309 1002.63C552.045 1009.3 539.868 1017.5 527.016 1022.9C514.211 1028.26 502.235 1035.8 490.159 1042.64C477.443 1049.85 464.792 1057.14 452.192 1064.54C405.19 1092.13 358.946 1121.07 313.986 1151.87C303.894 1158.78 293.87 1165.8 283.913 1172.93" stroke="white" stroke-opacity="0.05" stroke-width="3.27711" stroke-miterlimit="10" stroke-linecap="round"/>
<path d="M1713.51 392.303C1705.39 393.945 1697.4 398.946 1690.24 402.834C1679.11 408.861 1668.1 415.183 1657.35 421.849C1632.67 437.127 1609.06 454.112 1585.92 471.572C1577.77 477.704 1569.13 483.877 1562.13 491.346C1555.57 498.321 1547.93 503.756 1540.72 510.034C1526.78 522.183 1514.44 535.795 1501.03 548.488C1495.09 554.12 1488.46 559.023 1483.19 565.303C1476.57 573.186 1469.2 580.097 1461.34 586.768C1451.4 595.229 1440.79 602.884 1430.87 611.284C1419.06 621.317 1406.98 631.033 1394.59 640.336C1376.91 653.619 1358.25 665.281 1339.26 676.595C1328.82 682.829 1318.94 690.191 1308.75 696.834C1296.8 704.618 1284.77 712.278 1272.68 719.842C1223.25 750.753 1172.87 780.144 1121.98 808.594C1068.11 838.71 1012.99 866.522 958.555 895.709C944.856 903.044 931.52 910.87 917.697 918C903.618 925.243 889.52 932.455 875.413 939.651C848.18 953.529 820.926 967.335 793.652 981.109C765.656 995.259 737.663 1009.45 709.738 1023.75C683.067 1037.42 656.964 1052.01 630.412 1065.91C524.473 1121.33 419.352 1178.13 318.132 1241.93C307.139 1248.84 296.21 1255.83 285.312 1262.9" stroke="white" stroke-opacity="0.05" stroke-width="3.27711" stroke-miterlimit="10" stroke-linecap="round"/>
<path d="M1790.45 438.737C1769.76 448.431 1750.17 461.841 1731.09 474.273C1706.33 490.402 1682.32 507.586 1658.05 524.412C1646.19 532.636 1634.35 540.917 1622.78 549.547C1614.77 555.51 1607.64 562.293 1599.94 568.479C1583.16 581.926 1565.65 594.483 1548.76 607.824C1513.29 635.839 1479.71 665.99 1442.2 691.362C1417.46 708.087 1393.84 726.464 1368.98 743.107C1351.19 755.033 1332.56 765.629 1314.5 777.115C1210.08 843.626 1101.54 903.263 992.736 962.202C936.132 992.862 879.628 1023.65 822.674 1053.71C794.736 1068.45 766.821 1083.26 738.951 1098.11C710.075 1113.51 681.605 1129.61 652.796 1145.12C541.879 1204.85 431.653 1265.82 324.406 1332C313.355 1338.82 302.34 1345.67 291.346 1352.58" stroke="white" stroke-opacity="0.05" stroke-width="3.27711" stroke-miterlimit="10" stroke-linecap="round"/>
<path d="M1861.21 493.969C1812.89 523.056 1765.94 554.271 1719.04 585.582C1695.61 601.227 1671.8 616.35 1648.78 632.648C1632.69 644.034 1616.75 655.631 1600.53 666.946C1580.58 680.858 1560.5 694.591 1540.43 708.315C1523.89 719.606 1507.72 731.362 1491.17 742.596C1466.05 759.659 1440.73 776.523 1414.43 791.714C1386.43 807.876 1358 823.262 1329.81 839.083C1318.76 845.277 1307.7 851.506 1296.37 857.176C1293.47 858.62 1290.38 859.79 1287.51 861.282C1282.37 863.941 1277.58 867.812 1272.73 871.026C1246.96 888.118 1220.94 904.825 1194.81 921.376C1141.32 955.26 1088.22 990.247 1033.26 1021.7C973.295 1056.02 913.244 1090.21 852.969 1124C794.471 1156.76 735.568 1188.93 677.659 1222.7C621.597 1255.38 564.874 1286.91 508.918 1319.77C452.605 1352.82 396.568 1386.29 340.947 1420.48C329.981 1427.23 319.024 1434 308.077 1440.78" stroke="white" stroke-opacity="0.05" stroke-width="3.27711" stroke-miterlimit="10" stroke-linecap="round"/>
<path d="M1918.11 562.537C1870.76 591.402 1823.39 620.276 1776.04 649.141C1730.17 677.103 1684.29 705.075 1638.42 733.037C1597.89 757.744 1557.36 782.45 1516.81 807.167C1469.75 835.859 1422.7 864.541 1375.63 893.233C1329.35 921.445 1283.07 949.656 1236.79 977.868C1182.67 1010.86 1128.56 1043.85 1074.44 1076.84C1015.38 1112.84 956.327 1148.84 897.257 1184.85C839.116 1220.29 780.976 1255.73 722.835 1291.17C663.986 1327.05 605.137 1362.92 546.303 1398.79C488.903 1433.78 431.519 1468.76 374.119 1503.75C363.722 1510.09 353.31 1516.44 342.914 1522.77" stroke="white" stroke-opacity="0.05" stroke-width="3.27711" stroke-miterlimit="10" stroke-linecap="round"/>
<path d="M1952.99 644.528C1905.01 673.213 1856.48 700.878 1807.62 728.007C1778.89 743.965 1750.31 760.133 1721.51 775.94C1699.91 787.788 1677.86 798.656 1656.04 810.035C1635.35 820.83 1614.69 831.805 1594.15 842.903C1572.32 854.696 1550.38 866.235 1528.47 877.886C1509.33 888.063 1489.88 897.346 1470.68 907.346C1443.74 921.39 1417.39 936.503 1390.61 950.84C1334.8 980.739 1279.59 1011.75 1224.8 1043.51C1179.8 1069.6 1135.6 1097 1091.64 1124.8C1035.1 1160.53 979.138 1197.03 923.393 1233.99C866.818 1271.5 810.278 1308.76 754.818 1347.92C701.288 1385.72 647.606 1423.48 593.526 1460.44C539.499 1497.35 485.472 1534.15 430.982 1570.38C420.561 1577.31 410.134 1584.27 399.791 1591.33" stroke="white" stroke-opacity="0.05" stroke-width="3.27711" stroke-miterlimit="10" stroke-linecap="round"/>
<path d="M1969.66 732.732C1921.87 760.201 1873.4 786.188 1824.12 810.909C1795.44 825.307 1766.66 839.481 1737.92 853.76C1714.57 865.358 1691.11 877.198 1666.88 886.891C1646.08 895.203 1625.87 904.906 1605.51 914.25C1593.13 919.943 1580.72 925.324 1568.81 932.02C1556.83 938.764 1543.56 943.464 1531.06 949.225C1487.27 969.396 1442.61 987.304 1399.27 1008.5C1343.28 1035.87 1286.52 1062.38 1231.82 1092.27C1210.38 1103.98 1189.04 1115.91 1167.74 1127.9C1144.33 1141.09 1121.9 1156.43 1099.48 1171.22C1048.01 1205.17 998.695 1241.9 949.271 1278.6C898.024 1316.67 846.193 1354.1 797.194 1395.07C749.186 1435.23 700.46 1474.52 651.252 1513.21C638.546 1523.2 626.153 1533.56 613.282 1543.46C600.311 1553.44 587.266 1563.34 574.173 1573.16C550.084 1591.23 525.56 1608.67 500.816 1625.85C490.778 1632.81 480.712 1639.72 470.582 1646.57" stroke="white" stroke-opacity="0.05" stroke-width="3.27711" stroke-miterlimit="10" stroke-linecap="round"/>
<path d="M1975.69 822.396C1928.43 849.001 1880.14 873.382 1830.83 895.987C1803.91 908.316 1776.8 920.238 1749.83 932.447C1723.29 944.454 1696.56 956.146 1669.31 966.449C1658.46 970.556 1647.44 974.057 1636.57 978.066C1625.85 982.03 1615.4 986.676 1604.8 990.952C1594.28 995.205 1583.63 999.145 1573.03 1003.19C1559.39 1008.39 1546.16 1014.51 1532.54 1019.75C1511.3 1027.92 1490.08 1036 1468.96 1044.49C1448.12 1052.87 1426.62 1059.43 1405.73 1067.8C1378.75 1078.61 1352.39 1090.76 1325.77 1102.43C1297.36 1114.87 1269.11 1127.68 1241.12 1140.99C1213.66 1154.03 1186.61 1167.71 1159.87 1182.18C1140.64 1192.56 1121.44 1202.86 1103.21 1214.95C1082.64 1228.56 1062.36 1242.72 1042.84 1257.79C1030.73 1267.14 1018.7 1276.61 1006.84 1286.24C1000.71 1291.21 994.604 1296.23 988.556 1301.3C986.15 1303.31 983.734 1305.3 981.343 1307.3C978.396 1309.76 976.197 1312.46 973.555 1315.11C962.511 1326.16 949.649 1335.86 938.01 1346.33C927.078 1356.15 916.751 1367.46 905.015 1376.27C892.983 1385.31 882.331 1396.19 871.383 1406.52C860.191 1417.08 849.053 1427.69 837.979 1438.38C815.701 1459.89 794.15 1482.16 771.837 1503.65C767.478 1507.84 762.754 1511.33 758.201 1515.27C752.213 1520.48 746.734 1526.41 741.011 1531.91C729.923 1542.53 718.699 1553 707.366 1563.37C697.708 1572.2 688.642 1581.35 678.844 1589.98C667.181 1600.27 655.365 1610.41 643.438 1620.4C621.788 1638.55 599.592 1655.8 576.754 1672.42C567.119 1679.44 557.401 1686.35 547.523 1693.05" stroke="white" stroke-opacity="0.05" stroke-width="3.27711" stroke-miterlimit="10" stroke-linecap="round"/>
<path d="M1977.06 912.41C1932.15 937.866 1885.74 960.367 1838.33 980.776C1811.6 992.293 1784.55 1002.95 1757.57 1013.85C1731.88 1024.23 1706.09 1034.55 1679.99 1043.94C1658.42 1051.69 1636.34 1057.68 1614.73 1065.23C1593.01 1072.83 1571.33 1080.41 1549.49 1087.63C1503.9 1102.7 1458.84 1119.45 1412.99 1133.61C1361.01 1149.68 1310.65 1171.09 1260.33 1191.61C1209.18 1212.46 1159.08 1235.22 1110.3 1261.14C1100.9 1266.13 1091.2 1270.92 1082.12 1276.52C1072.71 1282.34 1063.86 1289.4 1055.08 1296.14C1033.9 1312.38 1013.99 1329.74 994.812 1348.28C974.174 1368.23 955.404 1389.4 936.286 1410.77C927.355 1420.75 919.187 1432.73 909.042 1441.47C898.387 1450.64 889.799 1462.64 880.874 1473.48C862.927 1495.29 845.441 1517.46 827.484 1539.26C818.753 1549.85 810.378 1561.52 799.962 1570.49C789.817 1579.22 781.656 1591.18 772.719 1601.18C753.601 1622.56 734.829 1643.73 714.192 1663.67C694.994 1682.22 675.092 1699.59 653.92 1715.82C645.083 1722.59 636.119 1729.22 626.88 1735.44" stroke="white" stroke-opacity="0.05" stroke-width="3.27711" stroke-miterlimit="10" stroke-linecap="round"/>
<path d="M1978.44 1002.42C1936.8 1026.08 1893.28 1046.1 1848.8 1063.72C1823 1073.93 1796.94 1083.38 1770.64 1092.24C1747.16 1100.15 1724.05 1109.16 1700.52 1116.99C1677.39 1124.67 1653.96 1131.13 1630.47 1137.58C1608.28 1143.68 1586.45 1151.09 1564.32 1157.4C1518.41 1170.48 1473.52 1186.85 1427.74 1200.41C1378.66 1214.95 1330.85 1233.74 1283.57 1253.32C1234.64 1273.58 1186.67 1296.08 1140.81 1322.61C1102.56 1344.74 1067.15 1370.04 1036.2 1401.72C1017.1 1421.24 1000.48 1442.25 983.408 1463.43C979.18 1468.69 974.997 1473.99 970.893 1479.34C966.481 1485.07 962.537 1491.54 957.725 1496.94C955.562 1499.38 953.004 1501.35 950.933 1503.91C948.772 1506.56 946.827 1509.44 944.79 1512.19C940.578 1517.93 936.411 1523.71 932.288 1529.53C916.276 1552.11 900.74 1574.93 884.271 1597.18C877.043 1606.94 869.661 1616.24 861.653 1625.29C852.895 1635.16 845.359 1646.37 836.98 1656.62C821.17 1675.98 805.62 1694.99 787.916 1712.69C771.312 1729.3 753.895 1744.71 735.016 1758.68C725.74 1765.55 716.232 1772.1 706.266 1777.94" stroke="white" stroke-opacity="0.05" stroke-width="3.27711" stroke-miterlimit="10" stroke-linecap="round"/>
<path d="M1984.48 1092.08C1944.27 1116.46 1900.75 1134.97 1856.39 1150.32C1833.05 1158.4 1809.37 1165.59 1785.58 1172.06C1760.87 1178.78 1736.37 1185.96 1711.31 1191.41C1667.65 1200.87 1623.71 1209.38 1579.91 1218.45C1557.64 1223.06 1535.35 1227.4 1513.11 1232.18C1491.6 1236.8 1469.9 1240.29 1448.46 1245.32C1399.09 1256.9 1349.76 1271.18 1302.08 1288.47C1279.63 1296.6 1257.62 1305.63 1236.13 1316.07C1215.67 1326.02 1195.23 1336.49 1176.68 1349.75C1159.2 1362.23 1142.69 1376.26 1127.65 1391.56C1109.91 1409.61 1092.56 1428.77 1078.38 1449.7C1071.47 1459.92 1063.46 1469.49 1056.32 1479.59C1049.08 1489.86 1042.71 1501 1035.11 1511C1027.35 1521.19 1020.38 1531.71 1013.55 1542.61C1006.63 1553.63 999.867 1564.76 993.222 1575.94C979.905 1598.36 965.584 1620.27 951.068 1641.93C944.637 1651.51 937.653 1660.72 931.056 1670.2C923.686 1680.83 916.097 1691.31 908.285 1701.61C879.407 1739.65 848.949 1775.74 810.932 1805.14C802.014 1812.02 792.808 1818.54 783.209 1824.41" stroke="white" stroke-opacity="0.05" stroke-width="3.27711" stroke-miterlimit="10" stroke-linecap="round"/>
<path d="M2001.14 1180.29C1961.59 1204.66 1917.35 1220.44 1872.5 1231.83C1827.02 1243.38 1780.42 1250.39 1733.72 1254.71C1711.19 1256.77 1688.63 1258.97 1666.07 1260.77C1641.18 1262.74 1616.2 1263.58 1591.3 1265.45C1569.59 1267.09 1547.85 1268.17 1526.17 1269.96C1502.56 1271.93 1479.15 1275.18 1455.77 1278.74C1410.33 1285.65 1364.95 1294.24 1321.88 1310.75C1300.39 1318.99 1279.07 1327.92 1260.56 1341.76C1242.08 1355.57 1224.92 1371.29 1209.36 1388.31C1142.44 1461.55 1098.85 1552.73 1049.57 1637.89C1025.39 1679.63 998.985 1719.75 972.813 1760.25C960.144 1779.84 944.409 1798.11 928.761 1815.37C914.545 1831.03 899.255 1845.65 882.76 1858.92C873.554 1866.33 863.972 1873.29 853.981 1879.62" stroke="white" stroke-opacity="0.05" stroke-width="3.27711" stroke-miterlimit="10" stroke-linecap="round"/>
<path d="M979.628 1891.09C955.512 1852.66 923.054 1823.05 885.122 1798.65C847.933 1774.71 808.459 1753.94 768.814 1734.38C748.422 1724.32 728.822 1712.55 710.074 1699.69C701.305 1693.67 692.954 1687.1 684.179 1681.1C674.553 1674.53 665.096 1667.69 655.908 1660.53C639.225 1647.51 621.794 1635.54 605.327 1622.24C587.903 1608.19 570.902 1593.67 554.294 1578.69C536.683 1562.8 519.22 1545.92 504.198 1527.56C490.166 1510.42 476.408 1492.71 464.97 1473.62C441.628 1434.66 431.792 1387.44 425 1342.95C417.965 1296.85 416.013 1250.45 414.506 1203.92C413.812 1182.65 412.924 1161.24 411.086 1140.04C409.158 1117.77 406.022 1095.73 402.76 1073.65C389.716 985.085 365.469 897.888 323.865 818.333C318.538 808.142 312.981 798.069 307.267 788.092" stroke="white" stroke-opacity="0.05" stroke-width="3.27711" stroke-miterlimit="10" stroke-linecap="round"/>
<path d="M1034.79 1820.34C1023.57 1802.76 1010.69 1786.14 995.246 1772.07C979.869 1758.04 961.667 1747.14 943.39 1737.33C933.221 1731.88 922.78 1726.95 912.314 1722.11C902.83 1717.72 894.547 1712.74 884.922 1708.65C864.419 1699.93 843.802 1691.35 823.654 1681.83C804.541 1672.8 786.846 1662.42 770.27 1649.3C762.119 1642.84 755.323 1635.27 747.866 1628.1C740.236 1620.76 732.241 1613.99 725.095 1606.1C710.877 1590.4 695.619 1575.61 681.806 1559.5C667.671 1543.02 653.633 1526.4 640.218 1509.32C613.622 1475.48 589.324 1437.85 573.012 1397.91C564.729 1377.66 560.874 1355.7 557.091 1334.22C553.321 1312.8 550.654 1291.3 548.809 1269.63C545.233 1227.54 545.267 1185.18 545.726 1142.94C546.193 1101.28 542.147 1060.51 531.306 1020.26C520.355 979.575 503.282 940.333 481.572 904.329C476.193 895.4 471.384 886.234 466.173 877.225C460.674 867.744 454.224 858.971 448.105 849.889C436.681 832.957 424.24 816.731 412.901 799.726C406.752 790.489 400.856 781.1 395.384 771.45" stroke="white" stroke-opacity="0.05" stroke-width="3.27711" stroke-miterlimit="10" stroke-linecap="round"/>
<path d="M1081.2 1743.44C1070.74 1726.78 1058.88 1710.72 1043.97 1697.75C1030.02 1685.6 1012.99 1676.88 996.138 1669.51C958.483 1653.03 918.888 1642.34 880.496 1627.74C862.296 1620.81 843.501 1612.52 828.817 1599.46C820.889 1592.41 813.704 1584.73 807.82 1575.9C801.902 1567.04 794.74 1559.15 789.07 1550.1C783.679 1541.5 779.326 1532.45 773.546 1524.07C767.946 1515.94 762.855 1507.38 758.074 1498.76C752.71 1489.11 748.086 1479.11 742.627 1469.52C737.278 1460.14 732.395 1450.5 727.474 1440.9C708.009 1402.95 691.456 1362.5 681.549 1320.94C678.993 1310.23 678.687 1298.71 677.724 1287.74C676.788 1276.88 675.983 1266.02 675.319 1255.15C674.014 1233.91 673.524 1212.69 673.377 1191.43C673.107 1152.53 676.322 1113.82 677.694 1074.96C679.095 1035.26 677.149 995.525 662.042 958.303C654.534 939.784 644.339 922.211 631.849 906.578C629.081 903.101 625.964 900.076 622.897 896.89C619.742 893.628 617.341 889.69 614.504 886.169C608.111 878.27 599.989 872.851 592.821 865.877C585.816 859.064 578.308 852.665 571.155 845.964C563.104 838.427 554.122 832.235 545.466 825.477C530.943 814.129 515.902 803.421 503.271 789.861C496.337 782.421 490.155 774.263 485.028 765.462" stroke="white" stroke-opacity="0.05" stroke-width="3.27711" stroke-miterlimit="10" stroke-linecap="round"/>
<path d="M1123.58 1664.17C1113.92 1648.33 1103.09 1632.69 1088.71 1620.76C1074.55 1609.02 1056.58 1601.94 1039.26 1596.31C999.738 1583.48 958.238 1578.49 918.891 1564.94C899.887 1558.4 883.104 1549.51 870.233 1533.78C863.739 1525.86 859.666 1517.58 855.469 1508.32C851.564 1499.69 847.15 1491.6 844.548 1482.4C843.192 1477.59 842.262 1472.73 840.786 1467.97C839.174 1462.77 836.988 1457.84 835.174 1452.7C831.839 1443.26 829.161 1433.55 827.023 1423.77C822.656 1403.81 816.659 1384.27 812.19 1364.28C807.633 1343.83 803.397 1323.17 799.775 1302.52C796.136 1281.77 792.615 1260.26 793.22 1239.17C794.441 1197.22 796.652 1155.34 799.519 1113.48C802.224 1073.93 809.205 1034.91 811.622 995.282C813.935 957.467 809.469 917.215 788.382 884.785C783.392 877.132 776.913 869.977 770.075 863.969C763.157 857.902 755.802 851.647 747.712 847.202C743.955 845.149 740.119 843.75 736.675 841.183C733.106 838.519 729.365 836.068 725.402 834.033C721.611 832.067 717.651 830.462 713.586 829.18C708.544 827.609 703.92 825.869 698.993 823.989C690.526 820.768 682.211 817.195 673.722 814.008C663.881 810.306 653.714 807.84 643.719 804.664C626.342 799.161 608.465 794.892 593.464 783.965C586.074 778.575 579.705 771.848 574.885 764.048" stroke="white" stroke-opacity="0.05" stroke-width="3.27711" stroke-miterlimit="10" stroke-linecap="round"/>
<path d="M1165.97 1584.92C1156.12 1568.63 1145.07 1551.99 1129.06 1541.11C1125.89 1538.95 1122.52 1537.15 1119 1535.58C1116.49 1534.45 1113.14 1533.84 1110.87 1532.39C1109.8 1531.7 1110.13 1531.25 1109.19 1530.65C1105.01 1528.06 1098.5 1527.16 1093.76 1525.95C1088.2 1524.52 1082.6 1523.33 1076.96 1522.23C1057.42 1518.43 1037.33 1515.78 1017.59 1513.73C997.138 1511.58 974.969 1509.35 955.558 1502.1C948.396 1499.43 940.838 1496 934.34 1491.68C926.053 1486.17 920.491 1478.89 915.404 1470.47C910.17 1461.78 908.637 1452 905.997 1442.35C903.502 1433.15 902.493 1423.7 902.654 1414.18C902.953 1394.58 900.225 1375.22 901.203 1355.52C902.288 1333.84 900.875 1312.38 901.672 1290.72C902.479 1269.19 902.493 1247.77 903.456 1226.31C903.995 1214.29 904.566 1202.26 904.987 1190.22C905.386 1178.51 907.154 1167.13 908.822 1155.54C915.035 1112.61 921.936 1069.88 928.072 1026.92C931.097 1005.76 936.989 985.125 940.244 963.955C941.682 954.652 942.644 945.315 943.822 935.977C945.096 925.91 944.9 915.982 945.544 905.91C947.837 870.224 934.157 826.343 902.45 806.652C894.693 801.831 885.835 798.394 877.224 795.433C869.296 792.704 860.987 792.259 852.939 790.079C834.563 785.099 816.267 786.983 797.507 785.91C788.372 785.385 779.042 784.505 769.38 784.604C758.361 784.71 747.328 785.041 736.299 785.131C718.545 785.281 700.065 786.37 683.521 778.652C675.938 775.108 669.335 769.735 664.682 762.74" stroke="white" stroke-opacity="0.05" stroke-width="3.27711" stroke-miterlimit="10" stroke-linecap="round"/>
<path d="M1212.38 1508.02C1203.97 1493.62 1194.79 1478.49 1181.26 1468.28C1167.28 1457.71 1148.69 1454.29 1131.66 1452.42C1122 1451.35 1112.32 1450.85 1102.61 1450.55C1094.38 1450.3 1085.62 1449.54 1077.7 1450.59C1073.03 1451.21 1067.75 1450.5 1063.05 1450.44C1057.43 1450.4 1051.81 1450.26 1046.19 1449.97C1036.5 1449.48 1026.74 1448.6 1017.15 1447.02C1000.39 1444.23 981.574 1438.28 971.627 1423.45C966.876 1416.37 963.542 1407.53 962.606 1399.05C961.704 1390.87 960.799 1382.37 961.302 1374.15C961.875 1364.82 963.888 1355.86 966.042 1346.81C968.135 1338.01 968.986 1329.02 970.81 1320.18C974.606 1301.7 980.71 1283.79 984.902 1265.39C989.304 1246.14 993.5 1226.79 998.156 1207.32C1002.8 1187.96 1007.15 1168.48 1011.13 1148.96C1013.25 1138.48 1015.2 1127.96 1016.87 1117.4C1018.5 1107 1021.53 1096.84 1024.13 1086.64C1028.92 1067.81 1033.61 1048.96 1038.27 1030.09C1042.87 1011.45 1047.25 992.755 1051.47 974.02C1055.56 955.925 1060.23 938.105 1064.86 920.139C1073.42 886.982 1081.24 852.446 1078.19 818.004C1076.57 799.611 1071.42 782.467 1061.19 766.966C1051.49 752.29 1038.74 742.607 1021.82 737.686C1004.93 732.771 988.319 733.587 971.054 734.433C962.916 734.835 954.979 735.071 946.899 736.454C938.051 737.959 929.546 740.701 920.779 742.481C916.318 743.385 911.944 744.539 907.522 745.614C905.194 746.191 902.853 746.603 900.502 747.106C899.991 747.224 896.77 748.214 899.059 747.467C870.763 754 843.093 763.263 814.612 769.067C794.897 773.09 767.644 775.487 754.407 756.679" stroke="white" stroke-opacity="0.05" stroke-width="3.27711" stroke-miterlimit="10" stroke-linecap="round"/>
<path d="M1267.54 1437.27C1257.7 1420.78 1246.57 1402.16 1228.32 1393.92C1209.1 1385.25 1186.01 1386.03 1165.43 1387.08C1142.78 1388.25 1120.38 1391.41 1097.75 1392.35C1077.34 1393.18 1054.15 1393.34 1036.08 1382.48C1015.55 1370.14 1015.09 1346.27 1018.45 1325.17C1020.08 1314.88 1023.77 1304.72 1027.58 1295.07C1031.93 1284.09 1036.31 1273.05 1040.97 1262.2C1050.45 1240.11 1061.61 1218.72 1071.42 1196.75C1081.56 1174.02 1091.3 1150.82 1100.39 1127.6C1135.81 1037.13 1164.04 943.912 1192.51 851.07C1204.86 810.764 1217.81 766.442 1206.13 724.387C1200.9 705.561 1187.79 686.113 1170.56 676.268C1152.24 665.785 1129.24 665.266 1108.88 668.168C1065.85 674.267 1026.67 693.437 987.621 711.281C965.002 721.634 942.466 732.476 919.223 741.309C901.244 748.143 879.852 755.76 860.376 751.385C853.246 749.79 846.763 746.137 842.56 740.057" stroke="white" stroke-opacity="0.05" stroke-width="3.27711" stroke-miterlimit="10" stroke-linecap="round"/>
<path d="M1336.28 1380.2C1325.96 1363.27 1314.29 1343.77 1294.8 1336.39C1270.67 1327.25 1241.78 1332.18 1217.02 1335.93C1191.23 1339.84 1165.48 1345.49 1139.33 1346.18C1117.44 1346.75 1088.38 1343.31 1079.61 1319.56C1071.96 1298.85 1081.38 1275.93 1090.11 1257.11C1100.71 1234.27 1114.06 1212.91 1127.32 1191.56C1156.28 1144.93 1184.75 1098.02 1209.33 1048.88C1233.72 1000.09 1253.19 949.116 1272.91 898.289C1290.76 852.297 1308.64 806.121 1323.42 759.021C1336.17 718.341 1349.11 669.077 1326.74 629.154C1315.28 608.698 1295.33 593.832 1272.27 589.485C1248.68 585.026 1224.06 590.397 1201.67 597.933C1155.89 613.327 1114.93 639.552 1073.7 664.103C1050.62 677.848 1027.39 691.837 1002.79 702.745C984.818 710.721 962.602 719.856 942.502 716.337C935.267 715.065 928.637 711.524 924.738 705.129" stroke="white" stroke-opacity="0.05" stroke-width="3.27711" stroke-miterlimit="10" stroke-linecap="round"/>
<path d="M1418.5 1345.25C1407.95 1328.36 1396.34 1309.45 1377.09 1301.62C1355.01 1292.62 1329.01 1293.85 1305.65 1294.33C1283.88 1294.78 1261.87 1296.34 1240.17 1293.84C1219.18 1291.42 1195.02 1285.32 1187.41 1262.91C1180.54 1242.67 1189.7 1219.73 1197.55 1201.08C1206.44 1179.97 1217.67 1160.01 1228.65 1139.95C1240.6 1118.09 1253.02 1096.42 1264.33 1074.23C1275.65 1052 1284.92 1028.81 1295.98 1006.52C1307.25 983.787 1314.64 958.453 1321.77 934.142C1328.91 909.806 1338.39 886.118 1346.51 862.088C1353.76 840.598 1360.9 819.134 1366.28 797.082C1368.96 786.094 1371.35 775.064 1373.6 763.972C1374.71 758.455 1376.3 753.097 1377.69 747.649C1379.2 741.76 1379.8 735.864 1381.13 729.973C1390.29 690.101 1397.34 642.656 1375.83 605.385C1365.19 586.938 1347.17 573.814 1326.8 568.123C1306.07 562.33 1283.51 564.723 1262.86 569.702C1217.69 580.625 1176.46 602.195 1134.83 622.192C1113.39 632.496 1091.95 642.303 1069.81 650.893C1052.09 657.763 1030.02 664.825 1010.88 660.116C1003.71 658.35 997.333 654.415 993.45 648.01" stroke="white" stroke-opacity="0.05" stroke-width="3.27711" stroke-miterlimit="10" stroke-linecap="round"/>
<path d="M1506.66 1328.63C1496.39 1312.53 1485.4 1294.31 1468.42 1284.46C1448.91 1273.17 1425.07 1269.78 1403.17 1266.12C1383.04 1262.75 1362.56 1259.18 1343.13 1252.61C1323.13 1245.88 1303.8 1235.13 1298.84 1212.96C1294.44 1193.26 1301.8 1171.77 1308.48 1153.38C1315.97 1132.74 1325.19 1112.49 1334.28 1092.49C1354.19 1048.7 1374.39 1004.93 1389.24 959.083C1396.7 936.02 1403.14 912.603 1408.22 888.895C1413.18 865.802 1419.1 842.943 1424.06 819.85C1428.51 799.117 1432.39 778.259 1434.31 757.126C1435.3 746.064 1435.94 734.957 1435.97 723.852C1436.02 713.715 1438.08 703.639 1439.18 693.529C1441.34 673.354 1440.95 653.516 1439.73 633.326C1438.52 613.408 1431.69 591.711 1421.21 574.741C1398.2 537.414 1352.16 529.118 1311.69 534.901C1268.87 541.024 1228.96 556.298 1187.96 569.362C1165.85 576.402 1143.83 583.303 1121.36 589.048C1103.88 593.506 1083.12 597.195 1065.65 590.756C1058.66 588.188 1052.58 583.681 1048.66 577.279" stroke="white" stroke-opacity="0.05" stroke-width="3.27711" stroke-miterlimit="10" stroke-linecap="round"/>
<path d="M1596.28 1322.6C1585.68 1305.78 1574.91 1286.84 1558.86 1274.55C1542.56 1262.08 1523.17 1254.02 1504.26 1246.26C1499.22 1244.19 1493.29 1242.51 1488.66 1239.63C1487.86 1239.12 1487.04 1238.13 1485.93 1237.56C1484.02 1236.56 1481.96 1235.69 1480 1234.82C1469.36 1230.11 1459.49 1224.87 1449.57 1218.78C1432.06 1207.99 1416.77 1193.75 1412.86 1172.71C1409.24 1153.12 1414.4 1132.3 1419.59 1113.42C1425.23 1092.9 1432.59 1072.58 1439.6 1052.51C1455.07 1008.23 1471.07 964.271 1482.55 918.707C1494.18 872.574 1501.81 825.297 1505.14 777.834C1506.56 757.588 1506.74 737.255 1505.47 717.002C1504.79 705.775 1503.59 694.559 1501.65 683.471C1500.88 679.097 1499.47 674.621 1499.2 670.206C1498.83 664.317 1498.89 658.21 1498.91 652.297C1498.96 641.289 1497.76 630.205 1495.42 619.449C1494.49 615.197 1493.24 611.054 1491.96 606.905C1490.55 602.28 1490.12 597.439 1489.03 592.704C1486.76 582.919 1482.33 573.803 1478.42 564.601C1474.39 555.046 1468.9 545.929 1462.5 537.774C1437.03 505.273 1395.38 495.077 1355.85 496.402C1336.84 497.038 1317.36 498.302 1298.6 501.402C1278.3 504.746 1258.17 509.127 1237.8 512.08C1214.43 515.459 1191.24 519.443 1167.71 521.32C1149.59 522.777 1130.46 524.002 1113.45 516.174C1105.97 512.721 1099.46 507.423 1095.06 500.382" stroke="white" stroke-opacity="0.05" stroke-width="3.27711" stroke-miterlimit="10" stroke-linecap="round"/>
<path d="M1686.14 1321.23C1675.63 1303.98 1665.71 1285.72 1652.43 1270.4C1649.1 1266.55 1644.87 1263.8 1641.3 1260.22C1637.57 1256.47 1633.69 1252.63 1629.3 1249.11C1620.99 1242.42 1612.43 1236.17 1603.79 1229.92C1599.91 1227.09 1595.2 1224.39 1591.86 1220.94C1590.36 1219.39 1589.98 1218.2 1588.38 1216.67C1586.35 1214.73 1583.92 1213.08 1581.7 1211.39C1572.91 1204.67 1565.22 1197.22 1557.45 1189.37C1543.43 1175.23 1532.08 1158.91 1528.48 1138.98C1524.96 1119.41 1528.41 1099.03 1531.97 1079.7C1535.92 1058.24 1541.89 1037.03 1547.1 1015.84C1552.49 993.886 1558.91 972.127 1563.59 950.001C1568.43 927.108 1572.84 904.136 1576.39 881.011C1583.36 835.776 1581.73 790.426 1580.61 744.893C1580.11 724.61 1578.1 704.47 1574.42 684.503C1572.36 673.374 1569.92 662.352 1566.68 651.498C1563.75 641.742 1558.38 631.902 1556.9 621.917C1555.29 611.058 1553.15 600.218 1549.8 589.753C1546.77 580.28 1542.08 571.988 1538.03 563.006C1535.97 558.41 1534.86 553.378 1532.73 548.739C1530.59 544.141 1528.02 539.745 1525.34 535.458C1520.05 526.994 1515.41 518.31 1509.01 510.584C1496.02 494.91 1480.49 481.519 1462.31 472.076C1443.6 462.355 1421.96 457.98 1401.18 455.503C1391.07 454.299 1380.89 454.326 1370.75 453.439C1360.69 452.554 1350.61 452.084 1340.5 452.196C1318.58 452.423 1296.76 453.908 1274.82 453.54C1252.41 453.179 1230.1 453.19 1207.76 451.598C1189.81 450.332 1171.38 448.022 1155.65 438.556C1148.38 434.174 1142.06 428.321 1137.49 421.13" stroke="white" stroke-opacity="0.05" stroke-width="3.27711" stroke-miterlimit="10" stroke-linecap="round"/>
<path d="M1776.02 1319.88C1764.79 1301.21 1754.78 1281.71 1742.76 1263.54C1740.17 1259.61 1737.09 1256.02 1734.09 1252.4C1730.87 1248.53 1728.2 1244.02 1724.95 1240C1718.3 1231.78 1711.62 1223.63 1704.81 1215.55C1701.24 1211.31 1697.73 1207.01 1694.35 1202.61C1691.84 1199.34 1690.62 1195.81 1688.08 1192.49C1681.32 1183.67 1674.55 1175.08 1668.76 1165.55C1658.31 1148.29 1649 1131.47 1644.96 1111.47C1640.67 1090.23 1642.83 1068.56 1645.01 1047.2C1647.31 1024.84 1651.71 1002.76 1655.17 980.576C1662.23 935.093 1669.59 889.965 1672.07 843.948C1673.33 820.495 1673.23 797.412 1670.34 774.092C1668.93 762.636 1667.05 751.253 1664.7 739.959C1663.56 734.516 1662.33 729.088 1660.98 723.688C1659.52 717.816 1659.19 711.75 1658.39 705.757C1652.73 663.578 1639.56 621.069 1618.32 584.09C1616.14 580.299 1614.86 576.217 1613.3 572.109C1611.48 567.303 1609.18 562.827 1607.15 558.12C1602.81 547.979 1597.39 538.342 1591.08 529.309C1584.89 520.465 1579.95 510.903 1573.37 502.315C1567.48 494.63 1561.64 486.676 1555.17 479.47C1540.74 463.379 1523.94 450.069 1505.28 439.168C1486.88 428.41 1466.37 422.028 1445.86 416.689C1435.83 414.07 1425.73 412.303 1415.53 410.568C1405.6 408.885 1395.82 406.419 1385.88 404.787C1364.75 401.312 1343.3 400.068 1322.18 396.477C1299.19 392.579 1275.75 389.134 1253.15 383.291C1234.27 378.402 1215.45 373.409 1199.33 361.889C1191.71 356.428 1184.98 349.723 1179.84 341.859" stroke="white" stroke-opacity="0.05" stroke-width="3.27711" stroke-miterlimit="10" stroke-linecap="round"/>
<path d="M1865.64 1313.86C1854.13 1294.62 1844.08 1274.59 1834.02 1254.55C1829.51 1245.55 1824.41 1236.73 1819.45 1228.05C1813.6 1217.85 1807.96 1207.54 1802.24 1197.27C1799.64 1192.61 1797.13 1187.9 1794.7 1183.13C1793.55 1180.85 1791.99 1178.39 1791.15 1175.96C1790.85 1175.07 1790.42 1174.01 1790.49 1173.1C1790.54 1172.47 1791.22 1171.32 1791.21 1170.96C1791.31 1167.07 1787.12 1161.2 1785.23 1157.25C1782.68 1151.94 1780.32 1146.53 1778.13 1141.06C1770 1120.93 1762.94 1100.66 1759.43 1079.19C1752.22 1035.23 1759.63 990.182 1763.11 946.233C1766.68 901.126 1771.08 856.165 1770.74 810.848C1770.4 764.24 1766.02 717.539 1751.9 672.908C1744.79 650.431 1737.9 628.317 1727.26 607.171C1717.12 587.035 1705.55 567.275 1692.08 549.19C1685.6 540.503 1679.16 532.094 1673.13 523.088C1666.87 513.745 1660.37 504.571 1652.96 496.078C1638.76 479.76 1623.8 464.184 1608.13 449.256C1591.62 433.505 1572.96 420.162 1553.42 408.457C1534.18 396.942 1513.56 388.789 1492.55 381.141C1450.94 366.057 1407.62 356.514 1365.66 342.619C1343.7 335.348 1321.52 327.806 1300.28 318.629C1280.94 310.26 1261.96 301.348 1245.93 287.378C1238.42 280.831 1231.73 273.329 1226.29 264.976" stroke="white" stroke-opacity="0.05" stroke-width="3.27711" stroke-miterlimit="10" stroke-linecap="round"/>
<path d="M1953.79 1297.24C1930.22 1257.89 1914.03 1214.22 1899.26 1170.99C1897.43 1165.64 1895.71 1160.27 1894.06 1154.88C1892.73 1150.49 1890.48 1145.49 1890.37 1140.84C1890.15 1130.39 1885.56 1119.28 1883.11 1108.8C1877.82 1086.27 1873.53 1063.5 1871.32 1040.45C1866.89 994.237 1869.92 947.643 1871.67 901.381C1872.52 878.782 1872.28 856.026 1872.5 833.381C1872.71 810.868 1871.57 788.469 1870.15 766.018C1869.4 753.903 1868.37 741.802 1867 729.739C1866.4 724.383 1865.76 719.047 1864.92 713.728C1863.9 707.347 1861.53 701.336 1860.46 695.051C1856.64 672.579 1850.97 650.279 1843.17 628.87C1827.09 584.768 1797.06 546.341 1764.72 512.861C1756.58 504.429 1747.8 496.689 1739.52 488.426C1731.36 480.286 1724.4 471.631 1715.81 463.857C1699.39 449.001 1681.8 435.352 1664.12 422.043C1626.11 393.442 1585.2 370.07 1541.83 350.623C1500.06 331.902 1457.13 315.248 1416.11 294.949C1375.83 274.992 1333.66 252.885 1302.12 220.215C1294.42 212.226 1287.42 203.575 1281.4 194.262" stroke="white" stroke-opacity="0.05" stroke-width="3.27711" stroke-miterlimit="10" stroke-linecap="round"/>
<path d="M910.889 1948.16C862.099 1868.12 777.323 1816.91 697.192 1772.9C614.587 1727.52 527.772 1688.21 450.988 1633C413.646 1606.15 378.634 1575.02 352.249 1537.09C325.724 1498.96 309.886 1454.8 300.384 1409.58C281.011 1317.23 284.777 1221.51 283.549 1127.74C282.255 1030.03 279.921 913.136 224.995 823.035C314.372 768.551 430.201 765.826 528.712 764.498C622.766 763.23 718.764 767.064 811.386 747.676C856.649 738.211 900.876 722.334 939.033 695.79C977.259 669.182 1008.58 633.84 1035.57 596.17C1090.83 519.077 1130.2 431.967 1175.8 349.145C1219.58 269.588 1270.66 185.601 1350.13 137.157C1404.96 227.101 1507.5 282.685 1594.14 328.801C1676.95 372.871 1763.75 413.375 1836.96 472.889C1872.8 502.026 1904.8 536.364 1926.53 577.408C1948.16 618.238 1959.78 663.634 1966.55 709.115C1980.45 802.662 1975.64 897.831 1978.11 992.056C1980.52 1083.45 1987.21 1182.28 2035.99 1262.3C1956.52 1310.74 1858.45 1317.65 1767.69 1320.14C1673.18 1322.72 1577.72 1317.81 1483.87 1331.61C1438.01 1338.35 1392.26 1349.99 1351.09 1371.78C1310 1393.54 1275.65 1425.59 1246.49 1461.47C1186.82 1534.92 1146.24 1621.99 1102.04 1705.03C1056.3 1790.94 1000.66 1893.43 910.889 1948.16Z" stroke="white" stroke-opacity="0.05" stroke-width="3.27711" stroke-miterlimit="10" stroke-linecap="round"/>
</svg>
